<svg xmlns="http://www.w3.org/2000/svg" width="63" height="63" fill="none"><rect id="backgroundrect" width="100%" height="100%" x="0" y="0" fill="none" stroke="none" class="" style=""/>





<g class="currentLayer" style=""><title>Layer 1</title><g class="" id="svg_6"><path fill-rule="evenodd" clip-rule="evenodd" d="M59.0140438079834,33.62967756006401 C59.0140438079834,49.92207756006401 45.8064438079834,63.12967756006401 29.5140438079834,63.12967756006401 C13.221643807983398,63.12967756006401 0.014043807983398438,49.92207756006401 0.014043807983398438,33.62967756006401 C0.014043807983398438,17.33727756006401 13.221643807983398,4.12967756006401 29.5140438079834,4.12967756006401 C45.8064438079834,4.12967756006401 59.0140438079834,17.33727756006401 59.0140438079834,33.62967756006401 zM29.5140438079834,56.91917756006401 C42.3764438079834,56.91917756006401 52.803543807983395,46.49207756006401 52.803543807983395,33.62967756006401 C52.803543807983395,20.76727756006401 42.3764438079834,10.34020756006401 29.5140438079834,10.34020756006401 C16.651643807983397,10.34020756006401 6.224573807983399,20.76727756006401 6.224573807983399,33.62967756006401 C6.224573807983399,46.49207756006401 16.651643807983397,56.91917756006401 29.5140438079834,56.91917756006401 z" transform="rotate(-4 0.01404380798338634,4.129677772521972) " fill="#EA4600" id="svg_1" class=""/><path d="M21.417784100952147,42.673978308507614 V41.16989830850761 H17.358304100952147 C16.84615410095215,41.16989830850761 16.46068710095215,41.05398830850761 16.20191510095215,40.82217830850762 C15.948534100952148,40.59035830850762 15.821844100952148,40.27497830850761 15.821844100952148,39.87603830850762 C15.821844100952148,39.77360830850761 15.840712900952148,39.67117830850761 15.878450500952148,39.568748308507615 C15.916188000952149,39.46092830850761 15.972794100952148,39.35040830850761 16.048269100952147,39.237198308507615 C16.12374510095215,39.118598308507615 16.20191510095215,39.005378308507616 16.282782100952147,38.89755830850761 C16.363648100952148,38.789738308507616 16.46338310095215,38.657658308507614 16.581987100952148,38.501318308507614 L20.86789410095215,32.76789830850761 C21.14823410095215,32.39052330850761 21.377354100952147,32.11827330850761 21.555264100952147,31.951150308507614 C21.73855410095215,31.778635608507614 21.956894100952148,31.692378308507614 22.210274100952148,31.692378308507614 C23.029724100952148,31.692378308507614 23.439444100952148,32.16140230850761 23.439444100952148,33.09944830850761 V39.35849830850761 H23.787164100952147 C24.20228410095215,39.35849830850761 24.53383410095215,39.415098308507616 24.78182410095215,39.528318308507615 C25.03520410095215,39.64152830850762 25.161894100952146,39.889518308507604 25.161894100952146,40.27228830850761 C25.161894100952146,40.58496830850761 25.059464100952148,40.814088308507614 24.854604100952148,40.95964830850761 C24.649744100952148,41.099818308507615 24.342454100952146,41.16989830850761 23.93272410095215,41.16989830850761 H23.439444100952148 V42.673978308507614 C23.439444100952148,43.08907830850761 23.34779410095215,43.39907830850761 23.164494100952147,43.603978308507614 C22.981204100952148,43.803478308507614 22.735904100952148,43.90317830850761 22.42861410095215,43.90317830850761 C22.12671410095215,43.90317830850761 21.88142410095215,43.80077830850762 21.692734100952148,43.595878308507615 C21.50943410095215,43.385678308507615 21.417784100952147,43.07837830850761 21.417784100952147,42.673978308507614 zM17.94054410095215,39.35849830850761 H21.417784100952147 V34.660168308507615 L17.94054410095215,39.35849830850761 z" transform="rotate(-27 15.821844100952166,31.692378997802738) " fill="#EA4600" id="svg_2" class=""/><path d="M33.13534410095215,33.843418308507616 H29.29414410095215 L28.83324410095215,36.463488308507614 C29.598744100952146,36.053768308507614 30.30494410095215,35.848898308507614 30.951944100952147,35.848898308507614 C31.46944410095215,35.848898308507614 31.951944100952147,35.945938308507614 32.39944410095215,36.140018308507614 C32.85224410095215,36.33409830850761 33.248544100952145,36.60365830850761 33.58814410095215,36.94867830850762 C33.92774410095215,37.28831830850761 34.19464410095215,37.692648308507614 34.38874410095215,38.16167830850762 C34.582844100952144,38.63069830850761 34.67984410095215,39.13476830850762 34.67984410095215,39.67387830850761 C34.67984410095215,40.45557830850761 34.50464410095215,41.16720830850761 34.15424410095215,41.80877830850761 C33.80384410095215,42.45027830850761 33.29704410095215,42.959778308507616 32.63394410095215,43.337078308507614 C31.976244100952147,43.714478308507616 31.216044100952146,43.90317830850761 30.35354410095215,43.90317830850761 C29.38854410095215,43.90317830850761 28.604144100952148,43.72527830850761 28.000344100952148,43.36947830850761 C27.40184410095215,43.013678308507615 26.975944100952148,42.606578308507615 26.72264410095215,42.14837830850762 C26.474644100952148,41.684748308507615 26.35064410095215,41.28041830850761 26.35064410095215,40.93538830850761 C26.35064410095215,40.72513830850761 26.43684410095215,40.52566830850761 26.609444100952146,40.33697830850761 C26.787344100952147,40.14828830850762 27.00834410095215,40.053948308507614 27.272544100952146,40.053948308507614 C27.72534410095215,40.053948308507614 28.06234410095215,40.31541830850762 28.28334410095215,40.83834830850761 C28.498944100952148,41.31815830850761 28.790044100952148,41.692878308507616 29.15664410095215,41.96237830850761 C29.523244100952148,42.22657830850761 29.93304410095215,42.35867830850761 30.38584410095215,42.35867830850761 C30.80094410095215,42.35867830850761 31.16484410095215,42.25077830850761 31.477544100952148,42.03517830850761 C31.79024410095215,41.81947830850761 32.03014410095215,41.523018308507616 32.19724410095215,41.145638308507614 C32.36974410095215,40.768268308507615 32.45604410095215,40.33966830850761 32.45604410095215,39.859868308507615 C32.45604410095215,39.34232830850762 32.36434410095215,38.90025830850762 32.18104410095215,38.53365830850761 C31.997744100952147,38.167068308507616 31.752444100952147,37.89481830850762 31.44524410095215,37.71690830850761 C31.137944100952147,37.53361830850761 30.79554410095215,37.44196830850761 30.418244100952148,37.44196830850761 C29.95454410095215,37.44196830850761 29.62304410095215,37.49857830850762 29.42354410095215,37.61178830850761 C29.22404410095215,37.724998308507615 28.935644100952146,37.92446830850761 28.558244100952148,38.210198308507614 C28.18624410095215,38.49052830850761 27.87904410095215,38.63069830850761 27.636444100952147,38.63069830850761 C27.372244100952148,38.63069830850761 27.137744100952148,38.536358308507616 26.93284410095215,38.347668308507615 C26.728044100952147,38.153588308507615 26.625544100952148,37.93524830850761 26.625544100952148,37.692648308507614 C26.625544100952148,37.665698308507615 26.655244100952146,37.48239830850761 26.714544100952146,37.142758308507624 L27.393844100952148,33.26926830850761 C27.469244100952146,32.80563830850761 27.609444100952146,32.468694308507615 27.814344100952148,32.25844230850761 C28.019144100952147,32.04818930850762 28.35344410095215,31.943063308507615 28.81704410095215,31.943063308507615 H33.086744100952146 C33.92774410095215,31.943063308507615 34.34834410095215,32.263833308507614 34.34834410095215,32.90536830850761 C34.34834410095215,33.185708308507614 34.24584410095215,33.412138308507615 34.04104410095215,33.58464830850762 C33.83614410095215,33.75715830850761 33.53424410095215,33.843418308507616 33.13534410095215,33.843418308507616 z" transform="rotate(-27 15.821844100952166,31.692378997802738) " fill="#EA4600" id="svg_3" class=""/><path d="M39.07694410095215,37.641098308507615 C39.07694410095215,38.34901830850762 38.92124410095215,38.875318308507616 38.60994410095215,39.22001830850761 C38.298644100952146,39.56470830850761 37.87234410095215,39.73704830850761 37.33124410095215,39.73704830850761 C36.997644100952144,39.73704830850761 36.69744410095215,39.66477830850762 36.43064410095215,39.52022830850761 C36.16744410095215,39.371978308507614 35.961744100952146,39.14217830850761 35.81344410095215,38.83084830850761 C35.66524410095215,38.51950830850761 35.59114410095215,38.13960830850761 35.59114410095215,37.69113830850761 C35.59114410095215,37.209308308507616 35.64854410095215,36.80716830850761 35.76344410095215,36.48471830850762 C35.87834410095215,36.16225830850762 36.063644100952146,35.91763830850761 36.31944410095215,35.750848308507614 C36.57884410095215,35.58406830850761 36.90874410095215,35.50066830850761 37.30904410095215,35.50066830850761 C37.59814410095215,35.50066830850761 37.85204410095215,35.54514830850761 38.07064410095215,35.63409830850762 C38.28934410095215,35.72305830850762 38.47464410095215,35.86018830850762 38.62664410095215,36.045508308507614 C38.778544100952146,36.22711830850761 38.89164410095215,36.449498308507614 38.96574410095215,36.71265830850761 C39.03984410095215,36.97580830850762 39.07694410095215,37.28528830850762 39.07694410095215,37.641098308507615 zM38.03734410095215,37.58550830850761 C38.03734410095215,37.09996830850761 37.98544410095215,36.74786830850761 37.881644100952144,36.529188308507614 C37.77784410095215,36.30680830850761 37.594444100952146,36.19561830850761 37.33124410095215,36.19561830850761 C37.15334410095215,36.19561830850761 37.01064410095215,36.24935830850762 36.90314410095215,36.35683830850761 C36.79934410095215,36.46061830850761 36.727144100952145,36.61628830850761 36.68634410095215,36.823848308507614 C36.649244100952146,37.02769830850762 36.63074410095215,37.288998308507615 36.63074410095215,37.607738308507614 C36.63074410095215,37.93760830850761 36.649244100952146,38.20631830850761 36.68634410095215,38.41387830850761 C36.727144100952145,38.621438308507614 36.79934410095215,38.77895830850761 36.90314410095215,38.886438308507614 C37.00694410095215,38.990218308507615 37.149644100952145,39.042108308507615 37.33124410095215,39.042108308507615 C37.605544100952145,39.042108308507615 37.79084410095215,38.92535830850761 37.887244100952145,38.69185830850761 C37.987244100952154,38.45835830850761 38.03734410095215,38.089568308507616 38.03734410095215,37.58550830850761 zM44.769944100952145,41.660658308507614 C44.769944100952145,42.368578308507615 44.61424410095215,42.894878308507614 44.302944100952146,43.23957830850762 C43.99164410095214,43.584278308507606 43.565344100952146,43.75657830850761 43.024244100952146,43.75657830850761 C42.68694410095215,43.75657830850761 42.38484410095215,43.68247830850761 42.11804410095215,43.53417830850761 C41.85484410095215,43.38597830850762 41.647344100952154,43.15807830850761 41.49534410095215,42.850378308507615 C41.34714410095215,42.542778308507614 41.272944100952145,42.162878308507615 41.272944100952145,41.71067830850761 C41.272944100952145,40.98794830850761 41.41014410095215,40.44496830850761 41.684344100952146,40.08174830850761 C41.96234410095215,39.71481830850762 42.40154410095215,39.53134830850762 43.001944100952144,39.53134830850762 C43.29104410095215,39.53134830850762 43.54314410095215,39.57582830850761 43.75804410095215,39.66477830850762 C43.976744100952146,39.75372830850762 44.162044100952144,39.887158308507615 44.314044100952145,40.06506830850761 C44.46974410095215,40.24296830850761 44.58464410095215,40.465348308507615 44.65874410095215,40.732208308507616 C44.73284410095215,40.99536830850762 44.769944100952145,41.304848308507616 44.769944100952145,41.660658308507614 zM43.73034410095215,41.605058308507616 C43.73034410095215,41.12693830850761 43.67844410095215,40.778538308507606 43.57464410095215,40.55986830850762 C43.47084410095215,40.337488308507616 43.28734410095215,40.22628830850761 43.024244100952146,40.22628830850761 C42.83894410095215,40.22628830850761 42.69434410095215,40.27817830850761 42.590544100952144,40.38195830850761 C42.48684410095215,40.485738308507614 42.41264410095215,40.639548308507614 42.36824410095215,40.843398308507616 C42.32744410095215,41.04354830850761 42.30704410095215,41.304848308507616 42.30704410095215,41.62729830850761 C42.30704410095215,42.12397830850762 42.358944100952144,42.487178308507616 42.46274410095215,42.71697830850761 C42.57024410095215,42.94677830850762 42.75734410095215,43.061678308507624 43.024244100952146,43.061678308507624 C43.29484410095215,43.061678308507624 43.480144100952145,42.94487830850761 43.58014410095215,42.71137830850761 C43.68024410095215,42.47417830850762 43.73034410095215,42.10537830850761 43.73034410095215,41.605058308507616 zM42.78514410095215,36.23452830850761 L38.15404410095215,43.70097830850762 C38.03544410095215,43.90487830850761 37.90204410095215,44.00677830850761 37.75374410095215,44.00677830850761 C37.66854410095215,44.00677830850761 37.58324410095215,43.973478308507616 37.49804410095215,43.906678308507615 C37.41274410095215,43.84367830850761 37.370144100952146,43.760278308507615 37.370144100952146,43.65657830850761 C37.370144100952146,43.57867830850761 37.40724410095215,43.484178308507616 37.48134410095215,43.37297830850761 L42.140244100952145,35.84536830850762 C42.22184410095215,35.708228308507614 42.292244100952146,35.606308308507614 42.35154410095215,35.53958830850761 C42.41454410095215,35.46916830850761 42.50344410095215,35.43395830850761 42.61834410095215,35.43395830850761 C42.72954410095215,35.43395830850761 42.81854410095215,35.467318308507615 42.88524410095215,35.534028308507615 C42.95564410095215,35.597038308507614 42.990844100952145,35.682288308507616 42.990844100952145,35.78976830850761 C42.990844100952145,35.86759830850762 42.922344100952145,36.01585830850762 42.78514410095215,36.23452830850761 z" transform="rotate(-27 15.821844100952166,31.692378997802738) " fill="#EA4600" id="svg_4" class=""/><path fill-rule="evenodd" clip-rule="evenodd" d="M15.779571076538087,41.36068664529961 C15.426356076538086,41.03753664529961 15.264944076538086,40.60360664529961 15.264944076538086,40.10907664529961 C15.264944076538086,39.9558066452996 15.293152676538085,39.806096645299604 15.345900576538085,39.66185664529961 C15.396529076538085,39.51818664529961 15.469009076538086,39.37897664529961 15.558389076538086,39.24434664529961 C15.638608076538086,39.118486645299605 15.722024076538085,38.99772664529961 15.808689076538085,38.88217664529961 C15.889963076538086,38.77380664529961 15.989894076538086,38.64146664529961 16.108387076538087,38.4852666452996 C16.108679076538085,38.4848866452996 16.108971076538086,38.48449664529961 16.109264076538086,38.484106645299605 L20.392664076538086,32.75403664529961 C20.392794076538085,32.75386664529961 20.392544076538087,32.754206645299604 20.392664076538086,32.75403664529961 C20.676564076538085,32.371900645299604 20.923394076538088,32.07553564529961 21.128634076538084,31.882683645299608 C21.389294076538086,31.637351645299606 21.709344076538088,31.511376645299606 22.067414076538086,31.511376645299606 C22.556604076538086,31.511376645299606 22.994634076538084,31.653964645299606 23.30110407653809,32.00478964529961 C23.598224076538088,32.344922645299604 23.710614076538086,32.812346645299606 23.710614076538086,33.3324866452996 V39.177946645299606 C24.12941407653809,39.18366664529961 24.503074076538084,39.24452664529961 24.809434076538086,39.3840366452996 C25.267544076538087,39.589586645299605 25.43304407653809,40.03278664529961 25.43304407653809,40.50531664529961 C25.43304407653809,40.915336645299604 25.292544076538086,41.287896645299604 24.951544076538084,41.530176645299605 L24.945574076538087,41.534476645299605 C24.640164076538085,41.743376645299605 24.233904076538085,41.816976645299604 23.789864076538088,41.816976645299604 H23.710614076538086 V42.907076645299604 C23.710614076538086,43.373676645299604 23.60881407653809,43.80167664529961 23.330184076538085,44.11307664529961 L23.326524076538085,44.11717664529961 C23.053904076538085,44.41387664529961 22.691734076538086,44.550276645299604 22.285754076538087,44.550276645299604 C21.878994076538085,44.550276645299604 21.519474076538085,44.407076645299604 21.245324076538086,44.109376645299605 L21.237664076538085,44.10107664529961 C20.964494076538088,43.78777664529961 20.860884076538085,43.367276645299604 20.860884076538085,42.907076645299604 V41.816976645299604 H17.215434076538084 C16.648664076538086,41.816976645299604 16.146595076538087,41.68947664529961 15.782786076538086,41.36359664529961 L15.779571076538087,41.36068664529961 zM17.215434076538084,41.402936645299604 C16.703284076538086,41.402936645299604 16.317824076538088,41.287026645299605 16.059050076538085,41.055206645299606 C15.805669076538086,40.82339664529961 15.678979076538086,40.508016645299605 15.678979076538086,40.10907664529961 C15.678979076538086,40.006646645299604 15.697848076538087,39.904216645299606 15.735585076538086,39.80178664529961 C15.773323076538086,39.69395664529961 15.829929076538086,39.5834466452996 15.905404076538087,39.470226645299604 C15.980880076538085,39.3516266452996 16.059050076538085,39.23841664529961 16.139917076538087,39.130596645299605 C16.220783076538087,39.022766645299605 16.320514076538085,38.89068664529961 16.439124076538086,38.73434664529961 L20.725034076538087,33.0009366452996 C21.005364076538086,32.62355664529961 21.234484076538088,32.351307645299606 21.412394076538085,32.184183645299605 C21.595694076538088,32.01166864529961 21.814034076538086,31.925411645299604 22.067414076538086,31.925411645299604 C22.886854076538086,31.925411645299604 23.296574076538086,32.39443564529961 23.296574076538086,33.3324866452996 V39.59152664529961 H23.644304076538084 C24.059414076538086,39.59152664529961 24.390964076538086,39.64813664529961 24.638954076538084,39.761346645299604 C24.892334076538084,39.87456664529961 25.019024076538088,40.12254664529961 25.019024076538088,40.50531664529961 C25.019024076538088,40.81799664529961 24.916594076538086,41.047126645299606 24.711734076538086,41.192676645299606 C24.506874076538086,41.332846645299604 24.199584076538088,41.402936645299604 23.789864076538088,41.402936645299604 H23.296574076538086 V42.907076645299604 C23.296574076538086,43.322176645299606 23.204934076538088,43.63217664529961 23.021634076538085,43.83697664529961 C22.838334076538086,44.03647664529961 22.593044076538085,44.13617664529961 22.285754076538087,44.13617664529961 C21.983854076538087,44.13617664529961 21.738554076538087,44.033776645299604 21.549864076538086,43.82887664529961 C21.366574076538086,43.61867664529961 21.274924076538085,43.3113766452996 21.274924076538085,42.907076645299604 V41.402936645299604 H17.215434076538084 zM21.274924076538085,39.59152664529961 H17.797674076538087 L21.274924076538085,34.89320664529961 V39.59152664529961 zM20.860884076538085,36.14860664529961 L18.619194076538086,39.177496645299605 H20.860884076538085 V36.14860664529961 zM27.64724407653809,43.95917664529961 L27.645844076538086,43.95837664529961 C27.004444076538086,43.57697664529961 26.516244076538086,43.12207664529961 26.217444076538087,42.581776645299605 L26.214644076538086,42.57667664529961 C25.949844076538085,42.081776645299605 25.793744076538086,41.608076645299604 25.793744076538086,41.16841664529961 C25.793744076538086,40.83346664529961 25.93454407653809,40.538306645299606 26.160944076538087,40.29063664529961 L26.165244076538087,40.2859466452996 C26.423044076538083,40.012556645299604 26.753844076538087,39.872946645299606 27.129644076538085,39.872946645299606 C27.441944076538086,39.872946645299606 27.730044076538086,39.96527664529961 27.97584407653809,40.1559766452996 C28.214644076538086,40.34129664529961 28.390744076538084,40.6016666452996 28.519844076538085,40.905606645299606 C28.710344076538085,41.327836645299605 28.958544076538086,41.640376645299604 29.257544076538085,41.860676645299606 C29.553044076538086,42.073176645299604 29.877544076538086,42.177676645299606 30.242944076538087,42.177676645299606 C30.582344076538085,42.177676645299606 30.862444076538086,42.0908766452996 31.099644076538084,41.9273766452996 C31.343944076538087,41.75887664529961 31.536844076538085,41.52477664529961 31.675844076538088,41.21101664529961 L31.677844076538086,41.206526645299604 C31.822044076538084,40.890986645299606 31.899144076538086,40.522546645299606 31.899144076538086,40.092896645299604 C31.899144076538086,39.62318664529961 31.815944076538084,39.24786664529961 31.667844076538085,38.95185664529961 C31.515044076538086,38.64620664529961 31.321844076538085,38.43963664529961 31.094844076538088,38.308266645299604 L31.090244076538085,38.3055566452996 C30.850644076538085,38.16263664529961 30.582244076538085,38.08903664529961 30.275344076538087,38.08903664529961 C29.824044076538087,38.08903664529961 29.585544076538085,38.147876645299604 29.485044076538088,38.204896645299605 C29.310544076538086,38.30395664529961 29.040044076538088,38.4896066452996 28.665344076538084,38.773326645299605 C28.277944076538084,39.06526664529961 27.877444076538087,39.27776664529961 27.493544076538086,39.27776664529961 C27.119444076538088,39.27776664529961 26.786244076538086,39.140136645299606 26.509544076538084,38.8852466452996 L26.505244076538084,38.8813066452996 C26.232544076538087,38.622946645299606 26.068644076538085,38.30073664529961 26.068644076538085,37.925686645299606 C26.068644076538085,37.88584664529961 26.075244076538084,37.83982664529961 26.077844076538085,37.82142664529961 L26.078244076538084,37.81833664529961 C26.082544076538085,37.78797664529961 26.08864407653809,37.74875664529961 26.096244076538085,37.701876645299606 C26.111444076538085,37.6076666452996 26.134044076538085,37.474926645299604 26.163844076538084,37.30458664529961 L26.842744076538086,33.43323664529961 C26.924444076538087,32.933046645299605 27.085244076538086,32.49978964529961 27.374944076538085,32.20253464529961 C27.692744076538084,31.876354645299607 28.161744076538085,31.762061645299607 28.674144076538084,31.762061645299607 H32.94394407653809 C33.405344076538086,31.762061645299607 33.827244076538086,31.848023645299605 34.14114407653808,32.08748264529961 C34.47624407653809,32.343107645299604 34.61944407653809,32.7192166452996 34.61944407653809,33.138406645299604 C34.61944407653809,33.534336645299604 34.468044076538085,33.879076645299605 34.16484407653809,34.134376645299604 C33.856344076538086,34.39419664529961 33.44274407653809,34.490486645299605 32.992444076538085,34.490486645299605 H29.498844076538084 L29.235244076538088,35.988606645299605 C29.777044076538086,35.77843664529961 30.302444076538087,35.667896645299614 30.809044076538086,35.667896645299614 C31.379444076538086,35.667896645299614 31.918044076538084,35.77508664529961 32.42044407653809,35.992816645299605 C32.920944076538085,36.20745664529961 33.361644076538084,36.50682664529961 33.739244076538085,36.8901266452996 C34.118944076538085,37.27015664529961 34.414944076538085,37.72052664529961 34.62844407653809,38.23640664529961 C34.844544076538085,38.758686645299605 34.95104407653808,39.31689664529961 34.95104407653808,39.90690664529961 C34.95104407653808,40.75301664529961 34.760644076538085,41.53367664529961 34.374744076538086,42.2402766452996 C33.98594407653809,42.952076645299606 33.42304407653809,43.5159766452996 32.696444076538086,43.92967664529961 C31.967944076538085,44.34747664529961 31.135144076538086,44.550276645299604 30.210644076538088,44.550276645299604 C29.198344076538085,44.550276645299604 28.334344076538088,44.364076645299605 27.64724407653809,43.95917664529961 zM32.49104407653809,43.570176645299604 C33.15414407653809,43.1927766452996 33.66094407653809,42.68327664529961 34.01134407653809,42.041776645299606 C34.36174407653809,41.40023664529961 34.536944076538084,40.688616645299604 34.536944076538084,39.90690664529961 C34.536944076538084,39.367796645299606 34.43994407653808,38.8637366452996 34.245844076538084,38.39470664529961 C34.051744076538085,37.925686645299606 33.78494407653808,37.521356645299605 33.44524407653809,37.18171664529961 C33.105644076538084,36.83668664529961 32.70944407653809,36.567136645299605 32.256544076538084,36.373056645299606 C31.809144076538086,36.178976645299606 31.326544076538084,36.081936645299606 30.809044076538086,36.081936645299606 C30.293744076538086,36.081936645299606 29.740844076538085,36.21191664529961 29.150244076538087,36.471866645299606 C28.999444076538087,36.53826664529961 28.84614407653809,36.613156645299604 28.690344076538086,36.6965166452996 L29.151244076538084,34.07645664529961 H32.992444076538085 C33.39134407653809,34.07645664529961 33.693244076538086,33.990196645299605 33.89814407653809,33.817676645299606 C34.10304407653808,33.645166645299604 34.205444076538086,33.418746645299606 34.205444076538086,33.138406645299604 C34.205444076538086,32.496866645299605 33.78494407653808,32.17609664529961 32.94394407653809,32.17609664529961 H28.674144076538084 C28.210544076538085,32.17609664529961 27.876344076538086,32.281223645299605 27.671444076538087,32.49147564529961 C27.466544076538085,32.70172664529961 27.32644407653809,33.03866664529961 27.250944076538087,33.502306645299605 L26.571644076538085,37.37579664529961 C26.512344076538085,37.715436645299604 26.482744076538086,37.898726645299604 26.482744076538086,37.925686645299606 C26.482744076538086,38.1682866452996 26.585144076538086,38.38662664529961 26.790044076538088,38.58070664529961 C26.994844076538087,38.769386645299605 27.229344076538084,38.8637366452996 27.493544076538086,38.8637366452996 C27.736144076538086,38.8637366452996 28.043444076538087,38.723566645299606 28.415444076538087,38.4432266452996 C28.792744076538085,38.157506645299605 29.081244076538084,37.95803664529961 29.28064407653809,37.84481664529961 C29.480144076538085,37.73160664529961 29.811744076538083,37.67499664529961 30.275344076538087,37.67499664529961 C30.652744076538085,37.67499664529961 30.995044076538086,37.76664664529961 31.302344076538088,37.949946645299605 C31.609644076538085,38.12785664529961 31.854944076538086,38.400096645299605 32.038244076538085,38.766696645299604 C32.22154407653809,39.133286645299606 32.31314407653809,39.57535664529961 32.31314407653809,40.092896645299604 C32.31314407653809,40.572706645299604 32.22694407653809,41.001296645299604 32.05434407653809,41.378676645299606 C31.887244076538085,41.75607664529961 31.647344076538086,42.05257664529961 31.334644076538087,42.268176645299604 C31.022044076538087,42.4838766452996 30.658144076538086,42.59167664529961 30.242944076538087,42.59167664529961 C29.790144076538084,42.59167664529961 29.38044407653809,42.459576645299606 29.013844076538085,42.1953766452996 C28.64724407653809,41.92587664529961 28.356144076538087,41.551176645299606 28.14044407653809,41.071386645299604 C27.919444076538085,40.548446645299606 27.58244407653809,40.2869766452996 27.129644076538085,40.2869766452996 C26.865444076538086,40.2869766452996 26.644444076538086,40.38132664529961 26.466544076538085,40.57000664529961 C26.294044076538086,40.75869664529961 26.207744076538084,40.958166645299606 26.207744076538084,41.16841664529961 C26.207744076538084,41.513476645299605 26.331744076538087,41.917776645299604 26.579744076538084,42.38137664529961 C26.833144076538087,42.839676645299605 27.259044076538085,43.24667664529961 27.857444076538087,43.6024766452996 C28.461244076538087,43.958276645299605 29.245644076538085,44.13617664529961 30.210644076538088,44.13617664529961 C31.073244076538085,44.13617664529961 31.833344076538086,43.9474766452996 32.49104407653809,43.570176645299604 zM36.08454407653809,40.113986645299605 C35.73684407653809,39.9181066452996 35.47634407653808,39.618936645299605 35.296844076538086,39.24188664529961 C35.115344076538086,38.860856645299606 35.03424407653809,38.416436645299605 35.03424407653809,37.92416664529961 C35.03424407653809,37.41275664529961 35.094744076538085,36.95996664529961 35.23054407653808,36.578776645299605 C35.37204407653809,36.181856645299604 35.60964407653809,35.85931664529961 35.95034407653809,35.637086645299604 L35.952644076538085,35.63559664529961 C36.296144076538084,35.414826645299605 36.70974407653809,35.319666645299606 37.16614407653809,35.319666645299606 C37.49704407653809,35.319666645299606 37.80584407653809,35.37053664529961 38.083844076538085,35.483616645299605 C38.36684407653809,35.598746645299606 38.607844076538086,35.77738664529961 38.80264407653809,36.014486645299606 C38.99684407653808,36.24701664529961 39.13404407653809,36.5233666452996 39.221444076538084,36.8334266452996 C39.308344076538084,37.1421866452996 39.34814407653809,37.491116645299606 39.34814407653809,37.87413664529961 C39.34814407653809,38.63259664529961 39.182744076538086,39.27844664529961 38.774344076538085,39.730566645299604 C38.37134407653809,40.17676664529961 37.82544407653809,40.384116645299606 37.18834407653809,40.384116645299606 C36.792944076538085,40.384116645299606 36.42384407653809,40.297836645299604 36.09054407653809,40.11731664529961 L36.08454407653809,40.113986645299605 zM38.48374407653809,36.278546645299606 C38.33184407653809,36.09322664529961 38.14644407653809,35.95608664529961 37.927844076538086,35.86713664529961 C37.70914407653808,35.778186645299606 37.45524407653809,35.733706645299605 37.16614407653809,35.733706645299605 C36.76584407653809,35.733706645299605 36.435944076538085,35.81709664529961 36.176544076538086,35.983886645299606 C35.92084407653809,36.150676645299605 35.73544407653809,36.39529664529961 35.62054407653808,36.717746645299606 C35.50564407653809,37.0401966452996 35.44824407653809,37.442336645299605 35.44824407653809,37.92416664529961 C35.44824407653809,38.37263664529961 35.52234407653809,38.7525466452996 35.67064407653808,39.06387664529961 C35.818844076538085,39.3752166452996 36.024544076538085,39.6050066452996 36.28774407653809,39.753266645299604 C36.55464407653808,39.89780664529961 36.854844076538086,39.9700866452996 37.18834407653809,39.9700866452996 C37.72954407653809,39.9700866452996 38.155744076538085,39.79773664529961 38.46704407653809,39.45304664529961 C38.77844407653809,39.10835664529961 38.934044076538086,38.582046645299606 38.934044076538086,37.87413664529961 C38.934044076538086,37.51832664529961 38.89704407653809,37.208836645299606 38.82284407653809,36.9456866452996 C38.74874407653809,36.68253664529961 38.63574407653809,36.460156645299605 38.48374407653809,36.278546645299606 zM37.73874407653808,36.762226645299606 C37.84254407653809,36.98089664529961 37.894444076538086,37.33300664529961 37.894444076538086,37.8185366452996 C37.894444076538086,38.32260664529961 37.84444407653808,38.69138664529961 37.744344076538084,38.92488664529961 C37.64794407653808,39.15838664529961 37.46264407653808,39.275136645299604 37.18834407653809,39.275136645299604 C37.006744076538084,39.275136645299604 36.864044076538086,39.22325664529961 36.76034407653809,39.119476645299606 L37.058144076538085,38.831886645299605 C37.05724407653808,38.8309866452996 37.056444076538085,38.83005664529961 37.055544076538084,38.829086645299604 C37.054544076538086,38.828196645299606 37.05374407653808,38.82739664529961 37.053044076538086,38.82670664529961 L36.76034407653809,39.119476645299606 C36.65654407653808,39.01198664529961 36.584244076538084,38.85446664529961 36.54344407653809,38.646916645299605 L36.95104407653808,38.57412664529961 C36.95084407653809,38.57291664529961 36.95064407653808,38.5716966452996 36.95044407653809,38.57048664529961 C36.95014407653809,38.56936664529961 36.94994407653809,38.568236645299606 36.94974407653808,38.5671066452996 L36.54344407653809,38.646916645299605 C36.50644407653809,38.439356645299604 36.48784407653808,38.170646645299605 36.48784407653808,37.840776645299606 C36.48784407653808,37.522026645299604 36.50644407653809,37.260726645299606 36.54344407653809,37.0568766452996 L36.94974407653808,37.136686645299605 C36.94994407653809,37.135766645299604 36.95014407653809,37.13485664529961 36.950244076538084,37.1339466452996 C36.95044407653809,37.132946645299604 36.95064407653808,37.13194664529961 36.95084407653809,37.13094664529961 L36.54344407653809,37.0568766452996 C36.584244076538084,36.849326645299605 36.65654407653808,36.693656645299605 36.76034407653809,36.58987664529961 C36.86774407653809,36.48239664529961 37.010444076538086,36.42864664529961 37.18834407653809,36.42864664529961 C37.451544076538084,36.42864664529961 37.63504407653809,36.53983664529961 37.73874407653808,36.762226645299606 zM41.77404407653809,44.12917664529961 L41.77194407653809,44.127976645299604 C41.42664407653808,43.933476645299606 41.164944076538085,43.63857664529961 40.98124407653809,43.26677664529961 L40.97944407653809,43.26317664529961 C40.79694407653808,42.884376645299604 40.71604407653808,42.43887664529961 40.71604407653808,41.94377664529961 C40.71604407653808,41.180156645299604 40.85894407653809,40.531636645299606 41.21114407653809,40.065276645299605 C41.59014407653808,39.56497664529961 42.17214407653809,39.35034664529961 42.85914407653809,39.35034664529961 C43.189344076538084,39.35034664529961 43.496944076538085,39.40099664529961 43.77234407653809,39.514756645299606 C43.77274407653809,39.51491664529961 43.77314407653809,39.51507664529961 43.77354407653809,39.51523664529961 L43.61524407653809,39.89780664529961 L43.77124407653808,39.51429664529961 C43.77164407653808,39.51444664529961 43.77204407653809,39.51460664529961 43.77234407653809,39.514756645299606 C44.05054407653809,39.628116645299606 44.289544076538085,39.79981664529961 44.484344076538086,40.027286645299604 C44.48384407653809,40.0266766452996 44.48334407653809,40.02606664529961 44.48274407653808,40.025456645299606 L44.171144076538084,40.29809664529961 L44.486044076538086,40.0291866452996 C44.48544407653809,40.0285566452996 44.484944076538085,40.02792664529961 44.484344076538086,40.027286645299604 C44.686344076538084,40.25873664529961 44.82694407653808,40.53835664529961 44.91464407653808,40.85367664529961 C45.001444076538085,41.16226664529961 45.04114407653809,41.51095664529961 45.04114407653809,41.89367664529961 C45.04114407653809,42.652176645299605 44.87564407653809,43.297976645299606 44.46734407653808,43.75007664529961 C44.064344076538084,44.19627664529961 43.518344076538085,44.403676645299605 42.881344076538085,44.403676645299605 C42.48124407653809,44.403676645299605 42.10874407653809,44.315076645299605 41.77404407653809,44.12917664529961 zM41.975144076538086,43.7672766452996 C41.712044076538085,43.618976645299604 41.504444076538086,43.391076645299606 41.352444076538085,43.083476645299605 C41.20424407653809,42.77577664529961 41.13014407653809,42.39587664529961 41.13014407653809,41.94377664529961 C41.13014407653809,41.220986645299604 41.26724407653809,40.67799664529961 41.54154407653809,40.3147766452996 M43.057744076538086,40.97041664529961 L43.05654407653809,40.96799664529961 C43.034144076538084,40.92002664529961 43.01374407653809,40.90404664529961 43.00174407653809,40.8967966452996 C42.987944076538085,40.888436645299606 42.95444407653808,40.87335664529961 42.881344076538085,40.87335664529961 C42.775444076538086,40.87335664529961 42.74754407653809,40.900746645299606 42.74044407653808,40.90775664529961 C42.711844076538085,40.93636664529961 42.66474407653809,41.006316645299606 42.63044407653808,41.16192664529961 C42.59784407653808,41.323806645299605 42.578244076538084,41.553476645299604 42.578244076538084,41.86037664529961 C42.578244076538084,42.341376645299604 42.63064407653809,42.63007664529961 42.69604407653809,42.776976645299605 C42.72044407653809,42.828376645299606 42.74334407653809,42.846976645299605 42.757444076538086,42.85567664529961 C42.77314407653809,42.8652766452996 42.807944076538085,42.88067664529961 42.881344076538085,42.88067664529961 C42.956944076538086,42.88067664529961 42.990044076538084,42.86477664529961 43.002544076538086,42.856776645299604 C43.013244076538086,42.85007664529961 43.034144076538084,42.833876645299604 43.05634407653808,42.7822766452996 C43.12274407653808,42.6238766452996 43.17344407653809,42.3241766452996 43.17344407653809,41.83807664529961 C43.17344407653809,41.3728866452996 43.120244076538086,41.10213664529961 43.057744076538086,40.97041664529961 zM43.43734407653808,42.9444766452996 C43.337244076538084,43.17797664529961 43.151944076538086,43.2946766452996 42.881344076538085,43.2946766452996 C42.61454407653808,43.2946766452996 42.42734407653809,43.179776645299604 42.31984407653809,42.94997664529961 C42.21604407653808,42.7201766452996 42.164144076538086,42.35697664529961 42.164144076538086,41.86037664529961 C42.164144076538086,41.537876645299605 42.18454407653809,41.276576645299606 42.225344076538086,41.07643664529961 C42.269844076538085,40.872586645299606 42.34394407653809,40.718776645299606 42.447744076538086,40.614996645299605 C42.551544076538086,40.51121664529961 42.69604407653809,40.459326645299605 42.881344076538085,40.459326645299605 C43.14454407653808,40.459326645299605 43.32794407653809,40.570516645299605 43.43174407653808,40.79289664529961 C43.53554407653809,41.011576645299606 43.58744407653809,41.359976645299604 43.58744407653809,41.83807664529961 C43.58744407653809,42.33847664529961 43.53734407653809,42.70727664529961 43.43734407653808,42.9444766452996 zM41.89924407653808,35.4975566452996 L41.90014407653808,35.4965466452996 C42.058344076538084,35.31967664529961 42.270444076538084,35.252956645299605 42.475544076538085,35.252956645299605 C42.67194407653808,35.252956645299605 42.87014407653808,35.31403664529961 43.026944076538086,35.466246645299606 C43.19164407653808,35.61813664529961 43.26204407653809,35.818946645299604 43.26204407653809,36.0228066452996 C43.26204407653809,36.157926645299604 43.210144076538086,36.2845366452996 43.17234407653808,36.36616664529961 C43.12784407653808,36.4623866452996 43.06654407653809,36.57038664529961 42.993544076538086,36.686856645299606 C42.99334407653809,36.68708664529961 42.99364407653809,36.68662664529961 42.993544076538086,36.686856645299606 L38.365944076538085,44.147676645299605 C38.21924407653809,44.39757664529961 37.97734407653809,44.65387664529961 37.61094407653809,44.65387664529961 C37.41274407653809,44.65387664529961 37.24164407653809,44.575576645299606 37.10424407653809,44.46907664529961 C36.919044076538086,44.330076645299606 36.81324407653808,44.1259766452996 36.81324407653808,43.889576645299606 C36.81324407653808,43.69317664529961 36.900644076538086,43.517776645299605 36.98984407653809,43.38257664529961 L41.64344407653809,35.8635566452996 C41.72904407653809,35.719826645299605 41.814544076538084,35.59277664529961 41.89924407653808,35.4975566452996 zM37.33844407653808,43.60607664529961 C37.26434407653809,43.7171766452996 37.22734407653809,43.8117766452996 37.22734407653809,43.889576645299606 C37.22734407653809,43.993376645299605 37.26994407653808,44.0767766452996 37.35514407653808,44.139776645299605 C37.440444076538085,44.2064766452996 37.525644076538086,44.23977664529961 37.61094407653809,44.23977664529961 C37.759144076538085,44.23977664529961 37.89254407653809,44.137876645299606 38.01124407653809,43.93407664529961 L42.64234407653809,36.467566645299605 C42.779444076538084,36.248886645299606 42.84804407653809,36.10063664529961 42.84804407653809,36.0228066452996 C42.84804407653809,35.915316645299605 42.812844076538084,35.830076645299606 42.74234407653809,35.76706664529961 C42.675644076538084,35.700346645299604 42.58674407653808,35.66698664529961 42.475544076538085,35.66698664529961 C42.36064407653809,35.66698664529961 42.27164407653808,35.70219664529961 42.208644076538086,35.77262664529961 C42.149344076538085,35.8393366452996 42.078944076538086,35.941266645299606 41.99744407653809,36.078396645299605 L37.33844407653808,43.60607664529961 z" transform="rotate(-27 15.264944076538075,31.511377334594723) " fill="#EA4600" id="svg_5" class=""/></g></g></svg>