<svg xmlns="http://www.w3.org/2000/svg" width="59" height="59" viewBox="0 0 59 59" fill="none" style=""><rect id="backgroundrect" width="100%" height="100%" x="0" y="0" fill="none" stroke="none"/>

<g class="currentLayer" style=""><title>Layer 1</title><g class=""><path fill-rule="evenodd" clip-rule="evenodd" d="M20.887523651123047,64.9756328338623 C33.55942365112305,64.9756328338623 43.83192365112305,54.7031328338623 43.83192365112305,42.031232833862305 C43.83192365112305,29.359332833862304 33.55942365112305,19.086792833862305 20.887523651123047,19.086792833862305 C8.215623651123046,19.086792833862305 -2.0569163488769533,29.359332833862304 -2.0569163488769533,42.031232833862305 C-2.0569163488769533,54.7031328338623 8.215623651123046,64.9756328338623 20.887523651123047,64.9756328338623 zM20.887523651123047,71.5312328338623 C37.17992365112305,71.5312328338623 50.38752365112305,58.323632833862305 50.38752365112305,42.031232833862305 C50.38752365112305,25.738832833862304 37.17992365112305,12.531232833862305 20.887523651123047,12.531232833862305 C4.595123651123046,12.531232833862305 -8.612476348876953,25.738832833862304 -8.612476348876953,42.031232833862305 C-8.612476348876953,58.323632833862305 4.595123651123046,71.5312328338623 20.887523651123047,71.5312328338623 z" transform="rotate(-21 -8.612476348876942,12.531232833862306) " fill="#F2994A" id="svg_1" class=""/><path d="M19.411793138427733,41.11993273925781 C18.808683138427735,41.11993273925781 18.25801313842774,41.07403273925782 17.75979313842774,40.98223273925781 C17.274683138427733,40.890532739257814 16.855123138427736,40.75283273925781 16.501123138427733,40.569232739257814 C16.147123138427734,40.38573273925781 15.871790138427734,40.16283273925781 15.675123138427736,39.900632739257816 C15.478456438427735,39.62523273925781 15.380123138427734,39.31063273925781 15.380123138427734,38.95663273925781 C15.380123138427734,38.58953273925781 15.485012138427734,38.281382739257815 15.694790138427734,38.03226273925782 C15.904567138427733,37.783152739257815 16.140567138427734,37.586492739257814 16.402793138427736,37.442262739257814 C16.769903138427736,37.71760273925781 17.163233138427735,37.960152739257815 17.582793138427736,38.16993273925782 C18.002343138427733,38.366602739257814 18.533343138427735,38.46493273925781 19.175793138427736,38.46493273925781 C19.792013138427734,38.46493273925781 20.231233138427733,38.32726273925781 20.493453138427736,38.051932739257815 C20.755683138427734,37.77660273925781 20.886793138427734,37.442262739257814 20.886793138427734,37.048932739257815 C20.886793138427734,36.66871273925781 20.768793138427736,36.354042739257814 20.532793138427735,36.10493273925781 C20.309903138427735,35.85582273925781 19.916563138427733,35.731262739257815 19.352793138427735,35.731262739257815 C18.998793138427736,35.731262739257815 18.703793138427734,35.77060273925781 18.467793138427734,35.84926273925781 C18.231793138427733,35.92793273925781 17.963013138427733,36.039372739257814 17.661453138427735,36.183602739257815 C17.019013138427734,36.15737273925781 16.507683138427733,35.98693273925781 16.127456138427736,35.67226273925781 C15.760345138427734,35.34449273925781 15.576790138427736,34.84626273925781 15.576790138427736,34.177602739257814 C15.576790138427736,34.13826273925781 15.576790138427736,34.09237273925782 15.576790138427736,34.039932739257814 C15.576790138427736,33.97437273925782 15.583345138427735,33.84982273925781 15.596456138427733,33.66626273925781 L15.832456138427734,30.676932739257815 C15.871790138427734,30.113152739257814 16.048790138427734,29.667372739257814 16.363456138427733,29.339599739257814 C16.678123138427736,29.01182273925781 17.117343138427735,28.847932739257814 17.681123138427736,28.847932739257814 H23.345123138427734 C23.423793138427733,28.992154739257813 23.502453138427732,29.182266739257813 23.581123138427735,29.41826673925781 C23.65979313842773,29.65426273925781 23.699123138427737,29.90337273925782 23.699123138427737,30.165602739257814 C23.699123138427737,30.66382273925781 23.587673138427732,31.01782273925781 23.364793138427736,31.22760273925782 C23.141903138427736,31.43737273925781 22.860013138427735,31.542262739257815 22.519123138427734,31.542262739257815 H18.743123138427734 L18.605453138427734,33.39093273925781 C18.854563138427736,33.32538273925781 19.103683138427733,33.26637273925781 19.352793138427735,33.213932739257814 C19.615013138427734,33.16149273925781 19.942793138427735,33.13526273925781 20.336123138427734,33.13526273925781 C21.017903138427734,33.13526273925781 21.607903138427734,33.24015273925781 22.106123138427733,33.44993273925781 C22.604343138427733,33.646602739257816 23.010793138427736,33.92193273925781 23.325453138427733,34.27593273925781 C23.653233138427737,34.62993273925781 23.889233138427734,35.042932739257814 24.03345313842773,35.514932739257816 C24.190793138427736,35.98693273925781 24.269453138427735,36.491712739257814 24.269453138427735,37.02926273925782 C24.269453138427735,37.566822739257816 24.17768313842774,38.08471273925781 23.99412313842774,38.582932739257814 C23.81056313842774,39.08113273925781 23.52212313842773,39.52033273925781 23.128793138427735,39.900632739257816 C22.735453138427737,40.26773273925781 22.230683138427736,40.56273273925781 21.614453138427734,40.785632739257814 C21.011343138427733,41.00853273925782 20.277123138427733,41.11993273925781 19.411793138427733,41.11993273925781 z" transform="rotate(-21 15.38012313842776,28.55293273925782) " fill="#F2994A" id="svg_2" class=""/><path d="M28.747423138427735,38.48460273925781 C29.586623138427733,38.48460273925781 30.255223138427738,38.268262739257814 30.753423138427735,37.83560273925781 C31.264823138427737,37.402932739257814 31.52042313842773,36.80637273925781 31.52042313842773,36.045932739257815 C31.376223138427733,36.16393273925781 31.107423138427734,36.30160273925782 30.714123138427738,36.45893273925781 C30.333923138427735,36.61626273925781 29.842223138427734,36.69493273925781 29.239123138427736,36.69493273925781 C28.63602313842773,36.69493273925781 28.085323138427732,36.609712739257816 27.587123138427735,36.43926273925781 C27.102023138427732,36.268822739257814 26.682423138427737,36.01971273925781 26.328423138427738,35.691932739257815 C25.97442313842774,35.351042739257814 25.699123138427737,34.93804273925781 25.50242313842773,34.45293273925781 C25.30579313842773,33.96782273925781 25.207463138427734,33.40404273925781 25.207463138427734,32.76160273925781 C25.207463138427734,32.197822739257816 25.30579313842773,31.66682273925781 25.50242313842773,31.168602739257814 C25.699123138427737,30.65726273925781 25.99412313842774,30.211492739257814 26.387423138427735,29.83126273925781 C26.780823138427735,29.43793273925781 27.265923138427738,29.129821739257814 27.842823138427732,28.90693273925781 C28.432823138427736,28.670932739257815 29.11462313842773,28.552932739257812 29.88812313842773,28.552932739257812 C31.43522313842773,28.552932739257812 32.64802313842773,29.07082173925781 33.52642313842773,30.10660273925781 C34.418023138427735,31.142372739257816 34.86382313842773,32.61738273925781 34.86382313842773,34.531602739257806 C34.86382313842773,35.61982273925781 34.72612313842774,36.57693273925781 34.45082313842774,37.402932739257814 C34.17542313842773,38.228932739257814 33.788723138427734,38.91723273925781 33.290423138427734,39.46793273925781 C32.80532313842774,40.01863273925781 32.221923138427734,40.431632739257815 31.54012313842773,40.70693273925781 C30.858323138427735,40.98223273925781 30.104423138427734,41.11993273925781 29.27842313842774,41.11993273925781 C28.22962313842774,41.11993273925781 27.410123138427736,40.975732739257815 26.820123138427732,40.68723273925781 C26.230123138427736,40.39883273925781 25.935123138427734,39.95963273925781 25.935123138427734,39.36963273925781 C25.935123138427734,39.09423273925781 25.99412313842774,38.83203273925781 26.112123138427734,38.582932739257814 C26.243223138427737,38.320712739257814 26.394023138427734,38.12404273925782 26.564423138427735,37.99293273925781 C26.918423138427734,38.15026273925781 27.285623138427738,38.274822739257814 27.665823138427733,38.366602739257814 C28.059123138427736,38.445262739257814 28.419723138427734,38.48460273925781 28.747423138427735,38.48460273925781 zM30.006123138427732,34.177602739257814 C30.255223138427738,34.177602739257814 30.504323138427736,34.125152739257814 30.753423138427735,34.02026273925782 C31.01572313842773,33.91537273925781 31.232023138427735,33.771152739257815 31.402423138427736,33.58760273925781 V33.351602739257814 C31.389323138427734,32.60426273925781 31.258223138427738,32.060152739257816 31.009123138427732,31.719262739257815 C30.760023138427734,31.378372739257813 30.392923138427733,31.207932739257814 29.90782313842773,31.207932739257814 C29.475123138427733,31.207932739257814 29.134223138427735,31.345602739257814 28.885123138427737,31.62093273925781 C28.649123138427733,31.88315273925781 28.53112313842773,32.243712739257816 28.53112313842773,32.70260273925781 C28.53112313842773,33.14837273925781 28.668823138427733,33.508932739257816 28.944123138427734,33.78426273925781 C29.219423138427736,34.046492739257815 29.573423138427735,34.177602739257814 30.006123138427732,34.177602739257814 z" transform="rotate(-21 15.38012313842776,28.55293273925782) " fill="#F2994A" id="svg_3" class=""/><path d="M42.598423138427734,32.71571273925781 C42.895523138427734,32.75941273925781 43.15782313842773,32.842452739257816 43.385023138427734,32.96482273925781 C43.62102313842773,33.07845273925781 43.747823138427734,33.235782739257814 43.765223138427736,33.43682273925781 C43.765223138427736,33.576672739257816 43.730323138427735,33.72089273925781 43.66042313842773,33.869492739257815 C43.59042313842774,34.018082739257814 43.498723138427735,34.171042739257814 43.385023138427734,34.328372739257816 L38.84862313842773,40.89703273925781 C38.568923138427735,40.85333273925781 38.33292313842773,40.77463273925781 38.140623138427735,40.66103273925781 C37.95702313842773,40.538632739257814 37.85652313842773,40.37693273925781 37.839023138427734,40.17593273925781 C37.839023138427734,40.03603273925781 37.847823138427735,39.900632739257816 37.86522313842774,39.76953273925781 C37.89152313842773,39.629632739257815 37.96142313842773,39.47233273925781 38.07502313842774,39.29753273925781 L42.598423138427734,32.71571273925781 zM40.146623138427735,34.80037273925781 C40.146623138427735,35.45593273925781 39.949923138427735,35.96726273925781 39.55662313842774,36.334372739257816 C39.16322313842774,36.701492739257816 38.65632313842774,36.88504273925781 38.035723138427734,36.88504273925781 C37.40642313842773,36.88504273925781 36.89502313842773,36.701492739257816 36.501723138427735,36.334372739257816 C36.117123138427736,35.96726273925781 35.92482313842773,35.45593273925781 35.92482313842773,34.80037273925781 C35.92482313842773,34.153562739257815 36.117123138427736,33.646602739257816 36.501723138427735,33.27949273925781 C36.89502313842773,32.912382739257815 37.40642313842773,32.728822739257815 38.035723138427734,32.728822739257815 C38.65632313842774,32.728822739257815 39.16322313842774,32.912382739257815 39.55662313842774,33.27949273925781 C39.949923138427735,33.646602739257816 40.146623138427735,34.153562739257815 40.146623138427735,34.80037273925781 zM37.51122313842774,34.80037273925781 C37.51122313842774,35.06260273925781 37.559323138427736,35.259262739257814 37.65552313842774,35.39037273925781 C37.76042313842773,35.51274273925781 37.88712313842774,35.57393273925781 38.035723138427734,35.57393273925781 C38.184323138427736,35.57393273925781 38.306723138427735,35.51274273925781 38.402823138427735,35.39037273925781 C38.507723138427735,35.259262739257814 38.560123138427734,35.06260273925781 38.560123138427734,34.80037273925781 C38.560123138427734,34.546892739257814 38.507723138427735,34.358972739257815 38.402823138427735,34.23660273925781 C38.306723138427735,34.114232739257815 38.184323138427736,34.05304273925781 38.035723138427734,34.05304273925781 C37.88712313842774,34.05304273925781 37.76042313842773,34.114232739257815 37.65552313842774,34.23660273925781 C37.559323138427736,34.358972739257815 37.51122313842774,34.546892739257814 37.51122313842774,34.80037273925781 zM45.64012313842774,38.82553273925781 C45.64012313842774,39.48103273925781 45.443523138427736,39.99233273925781 45.050123138427736,40.359532739257816 C44.65682313842774,40.72663273925781 44.149823138427735,40.91013273925781 43.52922313842774,40.91013273925781 C42.89992313842774,40.91013273925781 42.38862313842773,40.72663273925781 41.99522313842773,40.359532739257816 C41.61072313842773,39.99233273925781 41.418423138427734,39.48103273925781 41.418423138427734,38.82553273925781 C41.418423138427734,38.17867273925781 41.61072313842773,37.67171273925781 41.99522313842773,37.30460273925782 C42.38862313842773,36.93749273925781 42.89992313842774,36.75393273925781 43.52922313842774,36.75393273925781 C44.149823138427735,36.75393273925781 44.65682313842774,36.93749273925781 45.050123138427736,37.30460273925782 C45.443523138427736,37.67171273925781 45.64012313842774,38.17867273925781 45.64012313842774,38.82553273925781 zM43.00482313842774,38.82553273925781 C43.00482313842774,39.08773273925782 43.05292313842773,39.28433273925781 43.14902313842774,39.41553273925781 C43.25392313842774,39.53783273925781 43.38072313842773,39.59903273925781 43.52922313842774,39.59903273925781 C43.67782313842774,39.59903273925781 43.80022313842774,39.53783273925781 43.896423138427735,39.41553273925781 C44.00122313842773,39.28433273925781 44.053723138427735,39.08773273925782 44.053723138427735,38.82553273925781 C44.053723138427735,38.572032739257814 44.00122313842773,38.38408273925781 43.896423138427735,38.26171273925782 C43.80022313842774,38.13934273925781 43.67782313842774,38.07815273925782 43.52922313842774,38.07815273925782 C43.38072313842773,38.07815273925782 43.25392313842774,38.13934273925781 43.14902313842774,38.26171273925782 C43.05292313842773,38.38408273925781 43.00482313842774,38.572032739257814 43.00482313842774,38.82553273925781 z" transform="rotate(-21 15.38012313842776,28.55293273925782) " fill="#F2994A" id="svg_4" class=""/></g></g></svg>