<svg width="64" height="64" viewBox="0 0 64 64" fill="none" xmlns="http://www.w3.org/2000/svg">
<path fill-rule="evenodd" clip-rule="evenodd" d="M31.5 56C45.031 56 56 45.031 56 31.5C56 17.969 45.031 7 31.5 7C17.969 7 7 17.969 7 31.5C7 45.031 17.969 56 31.5 56ZM31.5 63C48.897 63 63 48.897 63 31.5C63 14.103 48.897 0 31.5 0C14.103 0 0 14.103 0 31.5C0 48.897 14.103 63 31.5 63Z" transform="translate(-9.00006 15.583) rotate(-23)" fill="#F2994A"/>
<path d="M4.305 13.419C3.661 13.419 3.073 13.37 2.541 13.272C2.023 13.174 1.575 13.027 1.197 12.831C0.819 12.635 0.525 12.397 0.315 12.117C0.105 11.823 0 11.487 0 11.109C0 10.717 0.112 10.388 0.336 10.122C0.56 9.856 0.812 9.646 1.092 9.492C1.484 9.786 1.904 10.045 2.352 10.269C2.8 10.479 3.367 10.584 4.053 10.584C4.711 10.584 5.18 10.437 5.46 10.143C5.74 9.849 5.88 9.492 5.88 9.072C5.88 8.666 5.754 8.33 5.502 8.064C5.264 7.798 4.844 7.665 4.242 7.665C3.864 7.665 3.549 7.707 3.297 7.791C3.045 7.875 2.758 7.994 2.436 8.148C1.75 8.12 1.204 7.938 0.798 7.602C0.406 7.252 0.21 6.72 0.21 6.006C0.21 5.964 0.21 5.915 0.21 5.859C0.21 5.789 0.217 5.656 0.231 5.46L0.483 2.268C0.525 1.666 0.714 1.19 1.05 0.840001C1.386 0.490001 1.855 0.315001 2.457 0.315001H8.505C8.589 0.469 8.673 0.672 8.757 0.924C8.841 1.176 8.883 1.442 8.883 1.722C8.883 2.254 8.764 2.632 8.526 2.856C8.288 3.08 7.987 3.192 7.623 3.192H3.591L3.444 5.166C3.71 5.096 3.976 5.033 4.242 4.977C4.522 4.921 4.872 4.893 5.292 4.893C6.02 4.893 6.65 5.005 7.182 5.229C7.714 5.439 8.148 5.733 8.484 6.111C8.834 6.489 9.086 6.93 9.24 7.434C9.408 7.938 9.492 8.477 9.492 9.051C9.492 9.625 9.394 10.178 9.198 10.71C9.002 11.242 8.694 11.711 8.274 12.117C7.854 12.509 7.315 12.824 6.657 13.062C6.013 13.3 5.229 13.419 4.305 13.419Z" transform="translate(17.2006 31.7864) rotate(-23)" fill="#F2994A"/>
<path d="M14.2736 10.605C15.1696 10.605 15.8836 10.374 16.4156 9.912C16.9616 9.45 17.2346 8.813 17.2346 8.001C17.0806 8.127 16.7936 8.274 16.3736 8.442C15.9676 8.61 15.4426 8.694 14.7986 8.694C14.1546 8.694 13.5666 8.603 13.0346 8.421C12.5166 8.239 12.0686 7.973 11.6906 7.623C11.3126 7.259 11.0186 6.818 10.8086 6.3C10.5986 5.782 10.4936 5.18 10.4936 4.494C10.4936 3.892 10.5986 3.325 10.8086 2.793C11.0186 2.247 11.3336 1.771 11.7536 1.365C12.1736 0.945 12.6916 0.616 13.3076 0.378C13.9376 0.126 14.6656 0 15.4916 0C17.1436 0 18.4386 0.553 19.3766 1.659C20.3286 2.765 20.8046 4.34 20.8046 6.384C20.8046 7.546 20.6576 8.568 20.3636 9.45C20.0696 10.332 19.6566 11.067 19.1246 11.655C18.6066 12.243 17.9836 12.684 17.2556 12.978C16.5276 13.272 15.7226 13.419 14.8406 13.419C13.7206 13.419 12.8456 13.265 12.2156 12.957C11.5856 12.649 11.2706 12.18 11.2706 11.55C11.2706 11.256 11.3336 10.976 11.4596 10.71C11.5996 10.43 11.7606 10.22 11.9426 10.08C12.3206 10.248 12.7126 10.381 13.1186 10.479C13.5386 10.563 13.9236 10.605 14.2736 10.605ZM15.6176 6.006C15.8836 6.006 16.1496 5.95 16.4156 5.838C16.6956 5.726 16.9266 5.572 17.1086 5.376V5.124C17.0946 4.326 16.9546 3.745 16.6886 3.381C16.4226 3.017 16.0306 2.835 15.5126 2.835C15.0506 2.835 14.6866 2.982 14.4206 3.276C14.1686 3.556 14.0426 3.941 14.0426 4.431C14.0426 4.907 14.1896 5.292 14.4836 5.586C14.7776 5.866 15.1556 6.006 15.6176 6.006Z" transform="translate(17.2006 31.7864) rotate(-23)" fill="#F2994A"/>
<path d="M29.0636 4.445C29.3809 4.49167 29.6609 4.58033 29.9036 4.711C30.1556 4.83233 30.2909 5.00033 30.3096 5.215C30.3096 5.36433 30.2722 5.51833 30.1976 5.677C30.1229 5.83567 30.0249 5.999 29.9036 6.167L25.0596 13.181C24.7609 13.1343 24.5089 13.0503 24.3036 12.929C24.1076 12.7983 24.0002 12.6257 23.9816 12.411C23.9816 12.2617 23.9909 12.117 24.0096 11.977C24.0376 11.8277 24.1122 11.6597 24.2336 11.473L29.0636 4.445ZM26.4456 6.671C26.4456 7.371 26.2356 7.917 25.8156 8.309C25.3956 8.701 24.8542 8.897 24.1916 8.897C23.5196 8.897 22.9736 8.701 22.5536 8.309C22.1429 7.917 21.9376 7.371 21.9376 6.671C21.9376 5.98033 22.1429 5.439 22.5536 5.047C22.9736 4.655 23.5196 4.459 24.1916 4.459C24.8542 4.459 25.3956 4.655 25.8156 5.047C26.2356 5.439 26.4456 5.98033 26.4456 6.671ZM23.6316 6.671C23.6316 6.951 23.6829 7.161 23.7856 7.301C23.8976 7.43167 24.0329 7.497 24.1916 7.497C24.3502 7.497 24.4809 7.43167 24.5836 7.301C24.6956 7.161 24.7516 6.951 24.7516 6.671C24.7516 6.40033 24.6956 6.19967 24.5836 6.069C24.4809 5.93833 24.3502 5.873 24.1916 5.873C24.0329 5.873 23.8976 5.93833 23.7856 6.069C23.6829 6.19967 23.6316 6.40033 23.6316 6.671ZM32.3116 10.969C32.3116 11.669 32.1016 12.215 31.6816 12.607C31.2616 12.999 30.7202 13.195 30.0576 13.195C29.3856 13.195 28.8396 12.999 28.4196 12.607C28.0089 12.215 27.8036 11.669 27.8036 10.969C27.8036 10.2783 28.0089 9.737 28.4196 9.345C28.8396 8.953 29.3856 8.757 30.0576 8.757C30.7202 8.757 31.2616 8.953 31.6816 9.345C32.1016 9.737 32.3116 10.2783 32.3116 10.969ZM29.4976 10.969C29.4976 11.249 29.5489 11.459 29.6516 11.599C29.7636 11.7297 29.8989 11.795 30.0576 11.795C30.2162 11.795 30.3469 11.7297 30.4496 11.599C30.5616 11.459 30.6176 11.249 30.6176 10.969C30.6176 10.6983 30.5616 10.4977 30.4496 10.367C30.3469 10.2363 30.2162 10.171 30.0576 10.171C29.8989 10.171 29.7636 10.2363 29.6516 10.367C29.5489 10.4977 29.4976 10.6983 29.4976 10.969Z" transform="translate(17.2006 31.7864) rotate(-23)" fill="#F2994A"/>
</svg>
