<svg width="87" height="91" viewBox="0 0 87 91" fill="none" xmlns="http://www.w3.org/2000/svg">
<path fill-rule="evenodd" clip-rule="evenodd" d="M35 62.2222C50.0344 62.2222 62.2222 50.0344 62.2222 35C62.2222 19.9656 50.0344 7.77778 35 7.77778C19.9656 7.77778 7.77778 19.9656 7.77778 35C7.77778 50.0344 19.9656 62.2222 35 62.2222ZM35 70C54.33 70 70 54.33 70 35C70 15.67 54.33 0 35 0C15.67 0 0 15.67 0 35C0 54.33 15.67 70 35 70Z" transform="matrix(0.926362 -0.376635 0.40516 0.914246 1.31119 26.8285)" fill="#F2C94C"/>
<path d="M10.1598 2.20411C10.1598 2.55083 10.0842 2.88928 9.93303 3.21949C9.79696 3.53318 9.63065 3.77258 9.43411 3.93768C9.0259 3.73956 8.59502 3.59097 8.14145 3.49191C7.70301 3.37634 7.2948 3.31855 6.91683 3.31855C6.00971 3.31855 5.30669 3.58271 4.80777 4.11104C4.32397 4.62286 3.99891 5.36581 3.83261 6.33992C4.13498 6.10877 4.53563 5.90239 5.03455 5.72078C5.53347 5.52266 6.0475 5.4236 6.57666 5.4236C7.96759 5.4236 9.07126 5.86112 9.88767 6.73616C10.7192 7.6112 11.135 8.86598 11.135 10.5005C11.135 11.2104 11.0216 11.8873 10.7948 12.5312C10.568 13.1751 10.2278 13.7447 9.77428 14.24C9.32072 14.7188 8.75376 15.1068 8.07342 15.404C7.40819 15.6847 6.62958 15.825 5.73757 15.825C3.95356 15.825 2.54751 15.1729 1.51944 13.8686C0.506479 12.5643 0 10.7069 0 8.29637C0 6.92603 0.151188 5.72078 0.453563 4.68064C0.771057 3.6405 1.2095 2.77371 1.7689 2.08029C2.34341 1.38686 3.02375 0.866787 3.80993 0.520072C4.5961 0.173357 5.46543 0 6.41791 0C7.62742 0 8.54966 0.181612 9.18465 0.544836C9.83475 0.908061 10.1598 1.46115 10.1598 2.20411ZM5.71489 8.64309C5.42764 8.64309 5.1177 8.70913 4.78509 8.84121C4.46759 8.97329 4.21058 9.1549 4.01403 9.38605V10.0052C4.01403 10.8967 4.18034 11.5324 4.51295 11.9121C4.86068 12.2918 5.27645 12.4817 5.76025 12.4817C6.25917 12.4817 6.62958 12.3001 6.87148 11.9369C7.1285 11.5736 7.25701 11.1031 7.25701 10.5252C7.25701 9.94739 7.12094 9.49336 6.8488 9.16316C6.59178 8.81644 6.21381 8.64309 5.71489 8.64309Z" transform="matrix(0.926362 -0.376635 0.40516 0.914246 28.991 44.2424)" fill="#F2C94C"/>
<path d="M21.3811 0.37148C21.6381 0.553092 21.8649 0.809 22.0614 1.1392C22.2731 1.4529 22.3789 1.84914 22.3789 2.32794C22.3789 2.5921 22.3562 2.86452 22.3109 3.14519C22.2655 3.40936 22.1899 3.67352 22.0841 3.93768L17.367 15.6021C17.1554 15.6186 16.9513 15.6269 16.7547 15.6269C16.5733 15.6269 16.3994 15.6269 16.2331 15.6269C15.5528 15.6269 15.0009 15.4866 14.5776 15.2059C14.1543 14.9252 13.9426 14.4382 13.9426 13.7447C13.9426 13.398 14.0182 13.0265 14.1694 12.6303C14.3206 12.2175 14.5247 11.7305 14.7817 11.1691L18.0927 3.76433H12.5366C12.4459 3.58271 12.3552 3.34331 12.2644 3.04613C12.1737 2.74895 12.1284 2.43525 12.1284 2.10505C12.1284 1.47766 12.2569 1.03189 12.5139 0.767724C12.7709 0.503562 13.096 0.37148 13.4891 0.37148H21.3811Z" transform="matrix(0.926362 -0.376635 0.40516 0.914246 28.991 44.2424)" fill="#F2C94C"/>
<path d="M30.7491 5.24199C31.0918 5.29702 31.3942 5.40159 31.6563 5.55568C31.9284 5.69877 32.0746 5.89689 32.0947 6.15005C32.0947 6.32616 32.0544 6.50777 31.9738 6.69488C31.8931 6.882 31.7873 7.07462 31.6563 7.27274L26.4252 15.5443C26.1026 15.4893 25.8305 15.3903 25.6088 15.2472C25.3971 15.0931 25.2812 14.8894 25.261 14.6363C25.261 14.4602 25.2711 14.2896 25.2913 14.1245C25.3215 13.9484 25.4021 13.7502 25.5332 13.5301L30.7491 5.24199ZM27.9219 7.86711C27.9219 8.69262 27.6952 9.33652 27.2416 9.7988C26.788 10.2611 26.2034 10.4922 25.4878 10.4922C24.7621 10.4922 24.1725 10.2611 23.7189 9.7988C23.2754 9.33652 23.0537 8.69262 23.0537 7.86711C23.0537 7.05261 23.2754 6.41421 23.7189 5.95193C24.1725 5.48964 24.7621 5.2585 25.4878 5.2585C26.2034 5.2585 26.788 5.48964 27.2416 5.95193C27.6952 6.41421 27.9219 7.05261 27.9219 7.86711ZM24.8831 7.86711C24.8831 8.19731 24.9385 8.44496 25.0494 8.61007C25.1703 8.76416 25.3165 8.84121 25.4878 8.84121C25.6592 8.84121 25.8003 8.76416 25.9111 8.61007C26.0321 8.44496 26.0926 8.19731 26.0926 7.86711C26.0926 7.54791 26.0321 7.31126 25.9111 7.15717C25.8003 7.00307 25.6592 6.92603 25.4878 6.92603C25.3165 6.92603 25.1703 7.00307 25.0494 7.15717C24.9385 7.31126 24.8831 7.54791 24.8831 7.86711ZM34.2567 12.9357C34.2567 13.7612 34.0299 14.4051 33.5764 14.8674C33.1228 15.3297 32.5382 15.5609 31.8226 15.5609C31.0969 15.5609 30.5072 15.3297 30.0537 14.8674C29.6102 14.4051 29.3885 13.7612 29.3885 12.9357C29.3885 12.1212 29.6102 11.4828 30.0537 11.0206C30.5072 10.5583 31.0969 10.3271 31.8226 10.3271C32.5382 10.3271 33.1228 10.5583 33.5764 11.0206C34.0299 11.4828 34.2567 12.1212 34.2567 12.9357ZM31.2178 12.9357C31.2178 13.2659 31.2733 13.5136 31.3841 13.6787C31.5051 13.8328 31.6512 13.9098 31.8226 13.9098C31.9939 13.9098 32.135 13.8328 32.2459 13.6787C32.3668 13.5136 32.4273 13.2659 32.4273 12.9357C32.4273 12.6165 32.3668 12.3799 32.2459 12.2258C32.135 12.0717 31.9939 11.9947 31.8226 11.9947C31.6512 11.9947 31.5051 12.0717 31.3841 12.2258C31.2733 12.3799 31.2178 12.6165 31.2178 12.9357Z" transform="matrix(0.926362 -0.376635 0.40516 0.914246 28.991 44.2424)" fill="#F2C94C"/>
</svg>
