<svg xmlns="http://www.w3.org/2000/svg" width="60" height="58" fill="none" style=""><rect id="backgroundrect" width="100%" height="100%" x="0" y="0" fill="none" stroke="none" class="" style=""/>




<g class="currentLayer" style=""><title>Layer 1</title><path fill-rule="evenodd" clip-rule="evenodd" d="M39.13082161999121,50.153698505896095 C50.869588247791214,45.38101744939609 56.223635792791214,32.120442376896094 51.089488788791215,20.535208489496092 C45.95534178479121,8.949974602096091 32.27726583339121,3.4273290347560916 20.53849920559121,8.200010091256093 C8.799732577791211,12.972691147756095 3.4456641847112106,26.23331785549609 8.579811188711211,37.81855174289609 C13.71395819271121,49.40378563029609 27.392054992191213,54.92637956239609 39.13082161999121,50.153698505896095 zM41.78688851599121,56.147129583496096 C56.879548764791224,50.010841509496096 63.76337629999121,32.9614016138961 57.162347515991215,18.066140083496094 C50.56131873199121,3.1708785530960935 32.975108764791216,-3.9296724905039078 17.88244851599121,2.2066155834960934 C2.789788267191211,8.342903657496095 -4.094039268008789,25.39234355309609 2.5069895159912114,40.28760508349609 C9.108018299991212,55.182866613896095 26.694228267191214,62.2834176574961 41.78688851599121,56.147129583496096 z" fill="#F2C94C" id="svg_1" class=""/><path d="M23.457351371251214,26.836470764746096 C23.56824771485121,27.086709037406095 23.615801964991213,27.355676460156097 23.600010070071214,27.643363890536094 C23.59107428255121,27.914204777036097 23.534105176631215,28.141292972636094 23.429080173471213,28.324626867576093 C23.037906640551213,28.314905711816095 22.64436258671121,28.348336218756096 22.248452063551213,28.424927530856095 C21.85939359619121,28.484663156616094 21.513107739671213,28.576231315196097 21.20958523037121,28.699635772946095 C20.481131208051213,28.995806471546096 20.001074532391215,29.416005142896097 19.76942041541121,29.960218878186097 C19.544609090611214,30.487580693486095 19.521217301051212,31.1299416101661 19.699245046731214,31.887301628226098 C19.868133508971212,31.621755594406096 20.123855576391215,31.3419883917761 20.466419352191213,31.048018305256093 C20.80369057797121,30.7421302172461 21.184799185191213,30.5027947152361 21.609730698211212,30.330028474386097 C22.72669167971121,29.8759008231361 23.752925575191213,29.8313487640961 24.68841501783121,30.196357778696097 C25.63605311789121,30.556438250906098 26.371270690711214,31.326338175696094 26.894076999911213,32.506053786716095 C27.121157025111216,33.018461242336095 27.246618356531215,33.54404461642609 27.270459833751218,34.082825960256095 C27.294305362571208,34.6216164465461 27.20333092439121,35.14381876789609 26.997521473231217,35.6493743031961 C26.786444942071213,36.14304464049609 26.455266317931212,36.6081829937461 26.00397633719121,37.044793129296096 C25.559563882271213,37.4645803819961 24.979198314751216,37.8200923983961 24.26287963463121,38.11132917849609 C22.830260801631212,38.693795205996096 21.492538330311213,38.682115276696095 20.249762000291213,38.0763770488461 C19.019143357253213,37.4657281868911 18.018324931991213,36.290503823096095 17.247313555191212,34.550711970016096 C16.809003363991213,33.5616623622961 16.54490667931121,32.6424046526561 16.45502755275121,31.792947983556097 C16.37728932656321,30.9385551361461 16.452132552551213,30.169805712276094 16.679543223191214,29.4866730378361 C16.919102551251214,28.798611821006098 17.299096526791214,28.2011218168361 17.819522718851214,27.694197539850094 C18.33994891091121,27.187273262864096 18.982605926831212,26.778319247796098 19.747475239371212,26.467343027346097 C20.718747269131214,26.072448762546095 21.51743571227121,25.9024203993461 22.143530900011214,25.957260789850096 C22.781771098731213,26.007164409750096 23.21971287645121,26.300238058366098 23.457351371251214,26.836470764746096 zM21.947466880111214,32.935086997036095 C21.716793478491212,33.028872878386096 21.489032842351214,33.177732190276096 21.264180920091214,33.3816557902461 C21.051464340031213,33.580645471716096 20.903162727231212,33.795644341196095 20.81925871487121,34.0266378801161 V23.391793334340242 C21.302460634071213,35.1169859446361 21.639327583211212,35.52146426194609 22.027888455071214,35.68695090073609 C22.42858988115121,35.84749071221609 22.82318944197121,35.84878402480609 23.211696401151215,35.6908270721561 C23.612347966151212,35.527932434656094 23.851715015151214,35.27591948713609 23.929784232931212,34.9347828534861 C24.02000732015121,34.58870476863609 23.972699261751217,34.207132668016094 23.787865269751215,33.7900536428161 C23.603035329351215,33.372983760076096 23.34853611743121,33.0897092884361 23.024380949211213,32.9402356040061 C22.707091152011216,32.7739116093461 22.34811844511121,32.77219235953609 21.947466880111214,32.935086997036095 z" fill="#F2C94C" id="svg_2" class=""/><path d="M31.882238698911216,21.850087194178094 C32.14672196751121,21.897252936428096 32.41069840119121,22.007909786316098 32.67416799995121,22.182057743842094 C32.94440025959122,22.339394992496096 33.15618244239121,22.590814333216095 33.30932887079121,22.936390178756096 C33.39382093719121,23.127047039596093 33.46270531539121,23.331084493856096 33.51607464159121,23.5484648780361 C33.564164732991216,23.753932636836097 33.58798008839121,23.969259090176095 33.58743617479121,24.1945001864761 L33.53039354179121,34.1534966531961 C33.36576583099121,34.2344567101961 33.20447381299121,34.3071551287961 33.046714364391214,34.37129606929609 C32.90099762179121,34.4305407547961 32.761394868391214,34.4872996492961 32.62781346799122,34.541610416296095 C32.08144516039121,34.763749739296095 31.593474487791212,34.842595802996094 31.163716177791216,34.778223934396095 C30.73395786779122,34.7138520657961 30.40818642079121,34.431437001296096 30.186401836791212,33.930978740896094 C30.075509544791217,33.6807496106961 30.01744546399121,33.3878940028961 30.012052683191214,33.052551241716095 C30.001477355391216,32.705267334116094 30.00956272159121,32.2871038731561 30.036405469591216,31.7980323377961 L30.326773457191216,25.372533578916098 H37.12138870527514 C25.73405104179121,27.085124118396095 25.58466374859121,26.941935135396093 25.41679710779121,26.757047392336098 C25.248833779191216,26.572188170316096 25.112093930191214,26.3605860463761 25.006476821391217,26.1222603990961 C24.805801073391216,25.66943435529609 24.76641389299121,25.305735763976095 24.888313254391214,25.0311600539061 C25.01021261579121,24.756584343836096 25.22901417871121,24.5551174276781 25.544718348311214,24.426760219678094 H44.223806159275135 z" fill="#F2C94C" id="svg_3" class=""/><path d="M40.96299353819121,22.306796347716094 C41.25581989039121,22.234622077916097 41.532065328591216,22.211377051716095 41.791729852791214,22.237061269116097 C42.056118158391214,22.2514486372761 42.23676666319122,22.346763863136097 42.333949224191215,22.5228848137361 C42.39027861899122,22.649992435116097 42.41604042599121,22.794221588096097 42.41113795739121,22.955600793716098 C42.40623548879121,23.116979999336095 42.38280408679121,23.290575339096094 42.340940439191215,23.476358291956096 L40.78599057839121,31.154356025096092 C40.509355303191214,31.219893470096096 40.259142995391215,31.237247629396094 40.03535365499121,31.2064185029961 C39.81605825599121,31.1642672872961 39.65784966299121,31.055199772596097 39.560646843991215,30.879033109696095 C39.50432960399121,30.751952915696094 39.457906537591214,30.6254895914961 39.421232888391216,30.4998098886961 C39.38914581679121,30.362770433096095 39.39053149659121,30.1934555721961 39.42534941179122,29.9917738813961 L40.96299353819121,22.306796347716094 zM39.532327235791215,25.124555101036094 C39.79637000779121,25.720369219236098 39.82020222139121,26.2591543294161 39.60381982499121,26.740901289116096 C39.387441480191214,27.222657391276094 38.991987451591214,27.5803299558561 38.41727246679122,27.8139943098561 C37.834498132591214,28.050935388356095 37.28710091759122,28.0766019267761 36.77498818559121,27.891031588616094 C36.271031490791216,27.702156004916098 35.88693709539122,27.309844246236096 35.622894323391215,26.7140301280361 C35.36236834019121,26.126151665116097 35.33631521599121,25.592963055536096 35.54454157519122,25.114521341376097 C35.76092397159121,24.632774381676093 36.16045399299121,24.273444623096097 36.74322832719122,24.036503544596094 C37.317943311991215,23.802839190596096 37.86126453419121,23.778829846176095 38.37337321459121,23.964391041876098 C38.88548594659122,24.149961380036096 39.27180125259122,24.5366766381161 39.532327235791215,25.124555101036094 zM37.092011819191214,26.1167246815361 C37.19762892799121,26.355050328816098 37.32130713559121,26.515716084276093 37.46313907819122,26.598684284416095 C37.60960216599121,26.670393298816094 37.75161811419122,26.678287228496096 37.88918287119121,26.622356930996098 C38.02674762819122,26.5664266334961 38.11548845419121,26.464712925316093 38.15522412839121,26.317300275916097 C38.19949831159121,26.158666104276094 38.16882684879121,25.960186194816096 38.063209739991215,25.721860547536096 C37.96111347159122,25.4914796979961 37.83687605999121,25.340406791816093 37.69050560839121,25.2686601139161 C37.55219450619121,25.1936367115161 37.41416596619121,25.184132393796098 37.27660120919121,25.240062691296096 C37.13903645219121,25.295992988796094 37.04630821799121,25.399317085016094 36.998420558191214,25.550044122416097 C36.95868488399121,25.697456771816093 36.98991555079121,25.886343831996093 37.092011819191214,26.1167246815361 zM46.24058305619121,26.71462046119609 C46.504625828191216,27.310434579396095 46.528445886991214,27.849192262196098 46.31208374859121,28.330984934196096 C46.095681094191214,28.8126861815961 45.70023516879121,29.170377031096095 45.12552018399121,29.404041385096093 C44.54274584979122,29.640982463596096 43.99534053159121,29.666630717096098 43.48325210919121,29.481115233696094 C42.97927515639121,29.292193937696098 42.59528555199121,28.899871942896098 42.331242779991214,28.304057824696095 C42.07071679679122,27.7161793617761 42.04457103639121,27.1830284156961 42.25280144719122,26.704595843996096 C42.46917979199121,26.222839741836097 42.86870981339122,25.863509983256094 43.451484147591216,25.6265689047561 C44.02619913239121,25.3929045507561 44.56952035459122,25.3688952063361 45.08163308659121,25.554465544496097 C45.593741766991215,25.740026740196107 45.980057072991215,26.126741998276096 46.24058305619121,26.71462046119609 zM43.80026763959121,27.706790041696095 C43.90589285159122,27.94513397389609 44.02956700759121,28.1057905868961 44.17138274379121,28.1887222171961 C44.31786608959121,28.260476943896094 44.459869882991214,28.2683434461961 44.59743463999121,28.2124131486961 C44.73509203319121,28.156445187696093 44.82375237779121,28.0547965703961 44.86346779399121,27.907338208696096 C44.90775818359121,27.748740606896092 44.877183408591215,27.550232176396094 44.771558196591215,27.311888244196098 C44.66946192819121,27.0815073946561 44.54513188039121,26.930472151976097 44.39876142879122,26.858725474076095 C44.26045032659121,26.783702071676096 44.12251442279121,26.7741600904561 43.98485702959121,26.8301280514561 C43.84729227259121,26.886058348956098 43.75456403839121,26.989382445176098 43.70667637859121,27.140109482576094 C43.66694070439121,27.287522131976097 43.698171371191215,27.476409192156098 43.80026763959121,27.706790041696095 z" fill="#F2C94C" id="svg_4" class=""/></g></svg>