<svg width="86" height="81" viewBox="0 0 86 81" fill="none" xmlns="http://www.w3.org/2000/svg">
<path fill-rule="evenodd" clip-rule="evenodd" d="M31.5 56C45.031 56 56 45.031 56 31.5C56 17.969 45.031 7 31.5 7C17.969 7 7 17.969 7 31.5C7 45.031 17.969 56 31.5 56ZM31.5 63C48.897 63 63 48.897 63 31.5C63 14.103 48.897 0 31.5 0C14.103 0 0 14.103 0 31.5C0 48.897 14.103 63 31.5 63Z" transform="matrix(0.928534 -0.371248 0.410856 0.9117 0.845459 23.5037)" fill="#F2C94C"/>
<path d="M9.24049 1.94816C9.24049 2.25461 9.17174 2.55376 9.03423 2.84562C8.91047 3.12289 8.75921 3.33448 8.58046 3.48041C8.20919 3.3053 7.81729 3.17396 7.40477 3.0864C7.006 2.98425 6.63473 2.93318 6.29096 2.93318C5.46591 2.93318 4.82651 3.16667 4.37273 3.63364C3.93271 4.08602 3.63707 4.7427 3.48581 5.60368C3.76082 5.39938 4.12522 5.21697 4.57899 5.05645C5.03277 4.88133 5.50029 4.79378 5.98157 4.79378C7.24663 4.79378 8.25044 5.18049 8.99298 5.95391C9.74927 6.72734 10.1274 7.8364 10.1274 9.2811C10.1274 9.9086 10.0243 10.5069 9.81802 11.076C9.61176 11.6452 9.30237 12.1486 8.88985 12.5864C8.47732 13.0096 7.96167 13.3525 7.34289 13.6152C6.73786 13.8633 6.02969 13.9873 5.2184 13.9873C3.59582 13.9873 2.317 13.4109 1.38195 12.2581C0.46065 11.1052 0 9.46351 0 7.33294C0 6.12173 0.137507 5.05645 0.412522 4.13709C0.701287 3.21774 1.10006 2.45161 1.60884 1.83871C2.13136 1.22581 2.75015 0.76613 3.46518 0.459678C4.18022 0.153226 4.97089 0 5.83718 0C6.93724 0 7.77604 0.160522 8.35357 0.481566C8.94485 0.802611 9.24049 1.29147 9.24049 1.94816ZM5.19778 7.6394C4.93651 7.6394 4.65462 7.69777 4.35211 7.81451C4.06334 7.93125 3.82958 8.09178 3.65082 8.29608V8.84331C3.65082 9.63133 3.80208 10.1932 4.10459 10.5288C4.42086 10.8644 4.799 11.0323 5.23903 11.0323C5.6928 11.0323 6.0297 10.8717 6.24971 10.5507C6.48347 10.2296 6.60035 9.81374 6.60035 9.30299C6.60035 8.79224 6.47659 8.39093 6.22908 8.09907C5.99532 7.79262 5.65155 7.6394 5.19778 7.6394Z" transform="matrix(0.928534 -0.371248 0.410856 0.9117 26.7381 39.4021)" fill="#F2C94C"/>
<path d="M19.4464 0.328341C19.6801 0.488863 19.8864 0.715054 20.0652 1.00691C20.2577 1.28418 20.3539 1.63441 20.3539 2.0576C20.3539 2.29109 20.3333 2.53187 20.292 2.77995C20.2508 3.01344 20.182 3.24693 20.0858 3.48041L15.7956 13.7903C15.6031 13.8049 15.4174 13.8122 15.2387 13.8122C15.0736 13.8122 14.9155 13.8122 14.7643 13.8122C14.1455 13.8122 13.6436 13.6882 13.2586 13.4401C12.8735 13.192 12.681 12.7615 12.681 12.1486C12.681 11.8422 12.7498 11.5138 12.8873 11.1636C13.0248 10.7988 13.2104 10.3683 13.4442 9.87211L16.4556 3.32719H11.4022C11.3197 3.16667 11.2372 2.95507 11.1547 2.69239C11.0722 2.42972 11.0309 2.15246 11.0309 1.8606C11.0309 1.30607 11.1478 0.912058 11.3816 0.678571C11.6153 0.445085 11.911 0.328341 12.2685 0.328341H19.4464Z" transform="matrix(0.928534 -0.371248 0.410856 0.9117 26.7381 39.4021)" fill="#F2C94C"/>
<path d="M27.9668 4.63325C28.2785 4.6819 28.5535 4.77432 28.7918 4.91052C29.0393 5.03699 29.1723 5.21211 29.1906 5.43586C29.1906 5.59152 29.1539 5.75204 29.0806 5.91743C29.0073 6.08282 28.911 6.25307 28.7918 6.42818L24.0341 13.7392C23.7407 13.6906 23.4932 13.603 23.2915 13.4766C23.099 13.3404 22.9936 13.1604 22.9753 12.9366C22.9753 12.781 22.9844 12.6302 23.0028 12.4842C23.0303 12.3286 23.1036 12.1535 23.2228 11.9589L27.9668 4.63325ZM25.3954 6.95353C25.3954 7.68317 25.1891 8.2523 24.7766 8.6609C24.3641 9.0695 23.8324 9.2738 23.1815 9.2738C22.5215 9.2738 21.9852 9.0695 21.5727 8.6609C21.1693 8.2523 20.9677 7.68317 20.9677 6.95353C20.9677 6.23361 21.1693 5.66935 21.5727 5.26075C21.9852 4.85215 22.5215 4.64785 23.1815 4.64785C23.8324 4.64785 24.3641 4.85215 24.7766 5.26075C25.1891 5.66935 25.3954 6.23361 25.3954 6.95353ZM22.6315 6.95353C22.6315 7.24539 22.6819 7.46428 22.7828 7.61021C22.8928 7.74641 23.0257 7.81451 23.1815 7.81451C23.3374 7.81451 23.4657 7.74641 23.5666 7.61021C23.6766 7.46428 23.7316 7.24539 23.7316 6.95353C23.7316 6.6714 23.6766 6.46223 23.5666 6.32603C23.4657 6.18983 23.3374 6.12173 23.1815 6.12173C23.0257 6.12173 22.8928 6.18983 22.7828 6.32603C22.6819 6.46223 22.6315 6.6714 22.6315 6.95353ZM31.157 11.4336C31.157 12.1632 30.9507 12.7323 30.5382 13.1409C30.1256 13.5495 29.594 13.7538 28.9431 13.7538C28.2831 13.7538 27.7468 13.5495 27.3342 13.1409C26.9309 12.7323 26.7292 12.1632 26.7292 11.4336C26.7292 10.7136 26.9309 10.1494 27.3342 9.74078C27.7468 9.33217 28.2831 9.12787 28.9431 9.12787C29.594 9.12787 30.1256 9.33217 30.5382 9.74078C30.9507 10.1494 31.157 10.7136 31.157 11.4336ZM28.3931 11.4336C28.3931 11.7254 28.4435 11.9443 28.5443 12.0902C28.6543 12.2264 28.7872 12.2945 28.9431 12.2945C29.0989 12.2945 29.2273 12.2264 29.3281 12.0902C29.4381 11.9443 29.4931 11.7254 29.4931 11.4336C29.4931 11.1514 29.4381 10.9423 29.3281 10.8061C29.2273 10.6699 29.0989 10.6018 28.9431 10.6018C28.7872 10.6018 28.6543 10.6699 28.5443 10.8061C28.4435 10.9423 28.3931 11.1514 28.3931 11.4336Z" transform="matrix(0.928534 -0.371248 0.410856 0.9117 26.7381 39.4021)" fill="#F2C94C"/>
</svg>
