<svg width="64" height="64" viewBox="0 0 64 64" fill="none" xmlns="http://www.w3.org/2000/svg">
<path fill-rule="evenodd" clip-rule="evenodd" d="M31.5 56C45.031 56 56 45.031 56 31.5C56 17.969 45.031 7 31.5 7C17.969 7 7 17.969 7 31.5C7 45.031 17.969 56 31.5 56ZM31.5 63C48.897 63 63 48.897 63 31.5C63 14.103 48.897 0 31.5 0C14.103 0 0 14.103 0 31.5C0 48.897 14.103 63 31.5 63Z" transform="matrix(0.925885 -0.377805 0.371414 0.928467 -8.97757 14.7407)" fill="#6FCF97"/>
<path d="M8.46815 0.310863C8.70338 0.46284 8.91093 0.67699 9.09081 0.953312C9.28452 1.21582 9.38138 1.54741 9.38138 1.94807C9.38138 2.16913 9.36063 2.3971 9.31912 2.63197C9.27761 2.85303 9.20842 3.07409 9.11156 3.29514L4.79447 13.0562C4.60075 13.07 4.41395 13.077 4.23408 13.077C4.06803 13.077 3.90891 13.077 3.7567 13.077C3.13405 13.077 2.629 12.9595 2.24157 12.7246C1.85414 12.4898 1.66042 12.0822 1.66042 11.5019C1.66042 11.2118 1.72961 10.9009 1.86797 10.5693C2.00634 10.2239 2.19314 9.81635 2.42837 9.3466L5.45864 3.15007H0.373595C0.290574 2.9981 0.207553 2.79776 0.124532 2.54907C0.0415106 2.30038 0 2.03788 0 1.76156C0 1.23654 0.117613 0.863508 0.35284 0.642449C0.588066 0.421392 0.885558 0.310863 1.24532 0.310863H8.46815Z" transform="matrix(0.925885 -0.377805 0.371414 0.928467 16.5908 30.2919)" fill="#6FCF97"/>
<path d="M14.5997 0C15.3884 0 16.0872 0.103621 16.696 0.310863C17.3048 0.504289 17.8237 0.773703 18.2526 1.11911C18.6816 1.46451 19.0067 1.87208 19.2281 2.34183C19.4495 2.81158 19.5602 3.31587 19.5602 3.8547C19.5602 5.30539 18.7369 6.687 17.0903 7.99953L14.3714 10.1756H19.3527C19.4357 10.3275 19.5118 10.521 19.581 10.7558C19.664 10.9907 19.7055 11.2463 19.7055 11.5226C19.7055 12.02 19.5948 12.3792 19.3734 12.6003C19.152 12.8075 18.8615 12.9112 18.5017 12.9112H11.2996C10.9952 12.7039 10.7531 12.4414 10.5732 12.1236C10.4071 11.7921 10.3241 11.4052 10.3241 10.9631C10.3241 10.4933 10.421 10.0996 10.6147 9.78181C10.8084 9.45022 11.0229 9.18772 11.2581 8.99429L14.1223 6.54884C14.4821 6.24488 14.7796 5.97547 15.0148 5.7406C15.25 5.49191 15.4368 5.27085 15.5752 5.07742C15.7274 4.884 15.8312 4.70439 15.8865 4.53859C15.9557 4.3728 15.9903 4.21391 15.9903 4.06194C15.9903 3.67509 15.8174 3.37113 15.4714 3.15007C15.1393 2.92902 14.7242 2.81849 14.2261 2.81849C13.6726 2.81849 13.1745 2.90829 12.7317 3.0879C12.3028 3.2537 11.943 3.4333 11.6525 3.62673C11.4172 3.46094 11.2235 3.25369 11.0713 3.005C10.9191 2.75631 10.843 2.46618 10.843 2.13459C10.843 1.41615 11.182 0.884231 11.86 0.538829C12.538 0.17961 13.4513 0 14.5997 0Z" transform="matrix(0.925885 -0.377805 0.371414 0.928467 16.5908 30.2919)" fill="#6FCF97"/>
<path d="M27.8857 4.38662C28.1994 4.43267 28.4761 4.52017 28.7159 4.64912C28.965 4.76886 29.0988 4.93466 29.1172 5.1465C29.1172 5.29387 29.0803 5.44585 29.0065 5.60243C28.9327 5.75902 28.8359 5.92021 28.7159 6.086L23.9284 13.0079C23.6332 12.9618 23.3841 12.8789 23.1812 12.7592C22.9875 12.6302 22.8814 12.4598 22.863 12.248C22.863 12.1006 22.8722 11.9578 22.8906 11.8197C22.9183 11.6723 22.9921 11.5065 23.112 11.3223L27.8857 4.38662ZM25.2982 6.58338C25.2982 7.27418 25.0907 7.81301 24.6756 8.19986C24.2605 8.58671 23.7255 8.78014 23.0705 8.78014C22.4063 8.78014 21.8667 8.58671 21.4516 8.19986C21.0457 7.81301 20.8428 7.27418 20.8428 6.58338C20.8428 5.90178 21.0457 5.36756 21.4516 4.98071C21.8667 4.59386 22.4063 4.40043 23.0705 4.40043C23.7255 4.40043 24.2605 4.59386 24.6756 4.98071C25.0907 5.36756 25.2982 5.90178 25.2982 6.58338ZM22.517 6.58338C22.517 6.8597 22.5678 7.06694 22.6692 7.2051C22.7799 7.33405 22.9137 7.39853 23.0705 7.39853C23.2273 7.39853 23.3565 7.33405 23.4579 7.2051C23.5686 7.06694 23.624 6.8597 23.624 6.58338C23.624 6.31627 23.5686 6.11824 23.4579 5.98929C23.3565 5.86033 23.2273 5.79586 23.0705 5.79586C22.9137 5.79586 22.7799 5.86033 22.6692 5.98929C22.5678 6.11824 22.517 6.31627 22.517 6.58338ZM31.0959 10.8249C31.0959 11.5157 30.8883 12.0546 30.4732 12.4414C30.0581 12.8283 29.5231 13.0217 28.8682 13.0217C28.204 13.0217 27.6643 12.8283 27.2492 12.4414C26.8434 12.0546 26.6404 11.5157 26.6404 10.8249C26.6404 10.1433 26.8434 9.60911 27.2492 9.22226C27.6643 8.8354 28.204 8.64198 28.8682 8.64198C29.5231 8.64198 30.0581 8.8354 30.4732 9.22226C30.8883 9.60911 31.0959 10.1433 31.0959 10.8249ZM28.3147 10.8249C28.3147 11.1012 28.3654 11.3085 28.4669 11.4466C28.5776 11.5756 28.7113 11.6401 28.8682 11.6401C29.025 11.6401 29.1541 11.5756 29.2556 11.4466C29.3663 11.3085 29.4216 11.1012 29.4216 10.8249C29.4216 10.5578 29.3663 10.3598 29.2556 10.2308C29.1541 10.1019 29.025 10.0374 28.8682 10.0374C28.7113 10.0374 28.5776 10.1019 28.4669 10.2308C28.3654 10.3598 28.3147 10.5578 28.3147 10.8249Z" transform="matrix(0.925885 -0.377805 0.371414 0.928467 16.5908 30.2919)" fill="#6FCF97"/>
</svg>
