<svg xmlns="http://www.w3.org/2000/svg" width="58" height="58" fill="none"><rect id="backgroundrect" width="100%" height="100%" x="0" y="0" fill="none" stroke="none" class="" style=""/>




<g class="currentLayer" style=""><title>Layer 1</title><g class=""><path fill-rule="evenodd" clip-rule="evenodd" d="M36.457307899133205,50.02980735433287 C48.31638008173008,45.946401333869424 54.66507139543131,33.153705318824954 50.637435199826385,21.45660046822825 C46.60979900422146,9.759495617631533 33.73098536431726,3.5873393403636253 21.871913181720387,7.670745360827068 C10.012840999123519,11.754151381290509 3.6641561967853633,24.546866306706477 7.691792392390294,36.24397115730319 C11.719428587995225,47.941076007899895 24.598235716536337,54.11321337479631 36.457307899133205,50.02980735433287 zM38.540944087659,56.08112623816849 C53.788376637773595,50.83101417939238 61.95094898062476,34.383348300985155 56.77252702946012,19.34411894121754 C51.594137635110926,4.304984133307482 35.035716054672264,-3.630666671413154 19.788283504557675,1.619445387362953 C4.540850954443091,6.869557446139062 -3.6216888315926283,23.31731787640384 1.5567005627565678,38.3564526843139 C6.735122513921212,53.39568204408151 23.29351153754442,61.331238296944605 38.540944087659,56.08112623816849 z" fill="#27AE60" id="svg_1" class=""/><path d="M15.687418457037115,30.566792151179897 C15.520727561955049,30.082686640473057 15.472918492192719,29.605028241107505 15.543992193268707,29.13381662751509 C15.61506494882613,28.662605339490838 15.784653850725071,28.218401749369477 16.05273817363794,27.80118866817793 C16.320833254009187,27.383976113379134 16.685466408750372,27.007979329796484 17.14663731229335,26.673197371911442 C17.607808476290856,26.338416170441235 18.14514858465766,26.065401304251893 18.758657767621038,25.85415315155082 C19.372166950584415,25.642904998849744 19.961597833437104,25.52117272654887 20.526950611520007,25.488956901959313 C21.092312454106874,25.456736687065913 21.604883127097082,25.51038165319845 22.064662630490638,25.649891800356933 C22.524452891342563,25.789402473908154 22.925314590337727,26.016888429252035 23.267254903684794,26.332339792076965 C23.60920792789917,26.64779735440611 23.863520432361632,27.04758214660565 24.030211327443695,27.531687657312503 C24.213571312033963,28.06420371909003 24.263584184106207,28.56817837790443 24.180237232793118,29.043605434251468 C24.096893537161577,29.519041945784267 23.904738936048815,29.95748856074576 23.60377342945482,30.358945279135952 C24.178386086443453,30.513066437087943 24.68795365309566,30.75727213934765 25.13245721903992,31.091568897278123 C25.572790256925593,31.41375356225518 25.917981302613626,31.937928127525957 26.168017645236716,32.664086393586224 C26.334708540318786,33.14819190429308 26.3825138280068,33.62585160593126 26.311452730531187,34.09709060837646 C26.24038186601092,34.56830124526441 26.058530952830843,35.016737560671146 25.76589053580519,35.442402810278224 C25.473259573965308,35.868064804203755 25.077954122199827,36.25462396423556 24.57997418050877,36.602080290373635 C24.081984783631952,36.949539872193256 23.489435910749528,37.241564852025064 22.802299196304233,37.47816499691372 C22.1151719370447,37.714761886120826 21.468439068074858,37.84945583065446 20.862110044580447,37.88224357483307 C20.25577156590029,37.91503457469324 19.706277036183906,37.85379613732121 19.213617000245534,37.698531518398525 C18.733228849899874,37.53904135039913 18.31384246570928,37.297627638616774 17.955459738710914,36.97428973191511 C17.609336293704878,36.64669888728395 17.35293447994244,36.2408647296095 17.186243584860378,35.756759218902644 C16.961210876499592,35.1032167794484 16.914790920717557,34.51001093966832 17.04698602767725,33.97715148031631 C17.191448819029524,33.440057342269995 17.418332604176157,32.98288373789903 17.727632655524246,32.60563229504419 C17.304652409524863,32.45345008979565 16.914092507425245,32.235954486033336 16.5559406574839,31.953149716143237 C16.193621535165505,31.65824230848547 15.904116620643798,31.1961293150988 15.687418457037115,30.566792151179897 zM20.239780363045384,34.40074743179622 C20.368965806733982,34.77592920259403 20.593763925527263,35.03019484849807 20.914184174610995,35.16354111382681 C21.246867799620254,35.29266476019221 21.60952763397657,35.289628867464984 22.002173132865693,35.15443017996357 C22.39481863175483,35.01923149246214 22.676340602954326,34.80045780155771 22.846729591278446,34.49811236293182 C23.025233593522543,34.17943515621185 23.05197178139594,33.838558614177586 22.926953610084396,33.475479481147445 C22.806102711149897,33.12450298588497 22.59565160447066,32.87206603990147 22.29560974523244,32.718165387515356 C22.003673444728435,32.54793622271673 21.650738633750912,32.459640056886826 21.23678934575102,32.4532612353357 C20.738570962854325,32.76018702920745 20.41665460136513,33.080863664785355 20.27102755041615,33.415284942565194 C20.1335187690687,33.73338390743672 20.123096736487938,34.06187357430143 20.239780363045384,34.40074743179622 zM21.04405117217503,28.84419349557983 C20.93153481799463,28.517422275852702 20.743774723369306,28.291016049643517 20.48077088829904,28.164974816952252 C20.21777650841453,28.038930328579454 19.90835636050887,28.03717187185803 19.552519899767823,28.159696191106434 C19.19668343902677,28.28222051035484 18.9539491043397,28.47410100223462 18.824297985335086,28.735344178108846 C18.694656321516227,28.99658409830152 18.68400530291558,29.28453997721836 18.792354384718926,29.59920855917781 C18.900703466522266,29.913877141137263 19.086379924959076,30.13423204846262 19.349374304843586,30.26027653683542 C19.62464151583937,30.382095150563366 19.918085731800666,30.457031709190403 20.22970400890479,30.485108378769596 C20.62582036692558,30.240414220873795 20.88454008874278,29.975352371406856 21.00584720780754,29.68990717567884 C21.127163782058048,29.40445872426926 21.13989843684722,29.122554164236263 21.04405117217503,28.84419349557983 z" fill="#27AE60" id="svg_2" class=""/><path d="M31.005942195030187,31.91203964862565 C31.79119537206541,31.641655296348986 32.348179571175685,31.226500768562673 32.67698934421857,30.66654350845124 C33.01799630688667,30.10238641914733 33.06760161335745,29.469347657640625 32.82590307117,28.767404122301457 C32.728479766143906,28.922776982665766 32.520731440675064,29.13646526349767 32.20255052017977,29.40846370086959 C31.896759148706373,29.676206650603874 31.461673444082052,29.90724394116876 30.89719885444925,30.101608129379677 C30.33281881667402,30.295939760775155 29.790329370664004,30.394739816279895 29.26991962013431,30.397943182262992 C28.76170705922985,30.39694671905358 28.289952827158572,30.302181954384196 27.854461308842282,30.113695091514202 C27.41480251814894,29.91310559087654 27.025879626421002,29.620589823284476 26.6875980818009,29.236180345553436 C26.349316537180812,28.85177086782241 26.078124867561776,28.363035225241234 25.87393177676779,27.770015429811096 C25.694739064554568,27.249602005801236 25.617963490689803,26.727767394781864 25.643699607031024,26.20447903993754 C25.6652684509952,25.66908804732556 25.799578062392875,25.162565018938693 26.0469153524783,24.684821739516366 C26.289986585943105,24.19499608740034 26.645999478795787,23.75427977442375 27.11504728062127,23.36263646169688 C27.592219225984344,22.954657179675817 28.19274996985982,22.626040805553945 28.916733543196216,22.376753269686102 C30.364606138011446,21.878210754765856 31.66421330903173,21.965451232045066 32.81545907189962,22.638503098057434 C33.97909373265309,23.307297585395027 34.865074670625816,24.525203664511544 35.4734931819938,26.292179323405797 C35.81937678928909,27.29669825812251 35.994804787135685,28.224523742613826 35.99959458318156,29.075739800882133 C36.004478931085,29.926923302334984 35.861325987185424,30.686967640221198 35.57011621739357,31.35581608342622 C35.29110363722695,32.02046469743874 34.87633573969547,32.58971339631939 34.325812524799126,33.063562180068175 C33.775289309902796,33.53741096381695 33.11349970874962,33.90742761723344 32.340443721339625,34.1736121403176 C31.35890088800997,34.511584441459576 30.546150775193794,34.6425237560954 29.902287934748664,34.566397527409606 C29.258425094303526,34.490271298723826 28.842824597454857,34.17986627779288 28.655297340487536,33.63524757824767 C28.567784620569455,33.381092185126576 28.539562905985854,33.120058806368306 28.57081153340725,32.85205396278468 C28.610194396979004,32.567742460982714 28.688851234660206,32.33759556900719 28.806687494593298,32.161645843673554 C29.187909920150354,32.19283097237928 29.571100458105136,32.18949456384243 29.95607000474252,32.15170173169389 C30.349258572343203,32.0975413189543 30.6991214172482,32.017686514747 31.005942195030187,31.91203964862565 zM30.814923516331902,27.530739790308672 C31.04799384521713,27.45048724023499 31.264489636451714,27.321791582275168 31.464316338178094,27.14468537324467 C31.676340229529707,26.963379335021656 31.832935760417953,26.760546177707994 31.934102930842833,26.536185901303675 V26.3980838366964 C31.609363568620275,25.632697353106593 31.31369345385984,25.172696632196775 30.97217949131371,24.93831315712646 C30.630760080625137,24.703897125240687 30.232984089350673,24.6648743015907 29.77894606934788,24.821212129361022 C29.374075015276254,24.960620413099576 29.09881340782809,25.197544804973973 28.95316124700338,25.531985304984204 C28.815633555284407,25.850090781218825 28.819796976023326,26.220939680270376 28.965651509220137,26.644532002138867 C29.107335514358347,27.056012231053934 29.35080968658145,27.34445983021238 29.695976218350346,27.509897901243903 C30.036975477742196,27.66323333450775 30.409957910402703,27.670180630862674 30.814923516331902,27.530739790308672 z" fill="#27AE60" id="svg_3" class=""/><path d="M42.134841220811836,22.123553884506876 C42.42690152322229,22.068107555900642 42.698657403872154,22.060275810742844 42.95020015893744,22.100016637032287 C43.20718857357137,22.128850291742324 43.37585842333371,22.23322314157 43.45611190068534,22.413158288145016 C43.50056497649492,22.54225939445735 43.51369002992675,22.68665306804595 43.49548706098083,22.846339308910824 C43.4771927958589,23.006067561776895 43.439956801699566,23.176823439095855 43.383593230469266,23.35868150968434 L41.22593024643672,30.883955511987224 C40.9503089445155,30.933699133962875 40.70443217099319,30.937136028238044 40.48839447772735,30.894233637997274 C40.27768835808331,30.84039990187803 40.1322020482224,30.723496550159382 40.05196810496004,30.543618134698903 C40.00749549506119,30.41446029727203 39.972586844792104,30.28666285544947 39.947271592379465,30.16000414870065 C39.9273824654462,30.022381539257893 39.94280508235305,29.854620569757415 39.99363399495758,29.656688683383734 L42.134841220811836,22.123553884506876 zM40.50294434567463,24.837920074802028 C40.71130796452721,25.443051963185596 40.68973912056303,25.978442955797576 40.438329109958126,26.444051040636793 C40.18692235503475,26.90966858066176 39.77080294707774,27.242475609315754 39.18997088608708,27.442472126598787 C38.60100736534627,27.64526853001015 38.06413860095673,27.640601644233513 37.579364592918466,27.4284714692689 C37.1027253003119,27.21355086336169 36.760269492670346,26.803503610215714 36.551905873817766,26.198371721832146 C36.34632260700424,25.601314562084198 36.36511808957377,25.07138397848388 36.60839338474699,24.608566324587244 C36.8598033953519,24.142958239748033 37.279988533183996,23.808751268029873 37.86895205392481,23.60595486461851 C38.44978411491546,23.405958347335478 38.982587149429925,23.412025176176275 39.46735790178664,23.62414589595514 C39.9521319098249,23.836276070919762 40.29736107886111,24.24086291505408 40.50294434567463,24.837920074802028 zM38.03665369308138,25.687132048888074 C38.11999914062241,25.9291848042415 38.22742035861915,26.095259883419857 38.35910645078672,26.185292172792245 C38.496143650665374,26.264449847400684 38.63425567345037,26.280076323722625 38.77324690406346,26.23221780501742 C38.91233268653413,26.184326729496775 39.007385544491925,26.088415146285698 39.058506541157534,25.944469408940293 C39.11497864553422,25.789649056830925 39.10154197395206,25.591212503099527 39.018196526411025,25.3491597477461 C38.937628175227516,25.115172265842546 38.828827027537194,24.95860441517941 38.69178657197699,24.879437285385222 C38.56287757616694,24.79747026946268 38.42892909079614,24.7804207484469 38.28984330832547,24.828311823967546 C38.15085207771238,24.87617034267275 38.05163568234039,24.973504970577665 37.992386481606175,25.120260049237174 C37.94126874062212,25.26421524176834 37.95608534189786,25.45314456698452 38.03665369308138,25.687132048888074 zM46.92346617975629,26.78320449680328 C47.13182979860888,27.388336385186832 47.11035550650226,27.92369482098337 46.85885419972132,28.38934491782379 C46.607447444797955,28.85496245784875 46.19132803684094,29.187769486502752 45.61059052770784,29.387733446970337 C45.02162700696702,29.5905298503817 44.4847582425775,29.58586296460507 43.999984234539234,29.37373278964045 C43.52334168625113,29.158802728547492 43.18088587860956,28.74875547540151 42.972522259756985,28.14362358701795 C42.76692597021729,27.546528606526977 42.785724708468365,27.016607478112412 43.02900000364157,26.553789824215777 C43.28040675856495,26.088172284190804 43.700591896397036,25.753965312472644 44.28955541713785,25.551168909061282 C44.870292926270956,25.351204948593697 45.40309596078541,25.35727177743449 45.887869968823665,25.56940195239912 C46.372738528719495,25.78149957054829 46.71786989021659,26.1861095163123 46.92346617975629,26.78320449680328 zM44.45717552716303,27.632416470889325 C44.54052097470406,27.874469226242752 44.64803674455837,28.040511748605653 44.77962828486838,28.13057659479349 C44.91674050251533,28.209644981471953 45.05477750753202,28.22536074572386 45.19386329000268,28.177469670203216 C45.33294907247335,28.12957859468257 45.427982396341875,28.033610280356967 45.479028375239196,27.88975383094153 C45.535595031473434,27.73490092201672 45.52215835989128,27.53646436828533 45.438812912350244,27.294411612931903 C45.3582347941221,27.06039576547107 45.249430390750234,26.903818459622187 45.112298639014014,26.82469334182919 C44.98348419506153,26.74269376909122 44.84953570969073,26.725644248075433 44.71044992722006,26.77353532359608 C44.5713641447494,26.82142639911673 44.47224230123498,26.918728470206204 44.4128985486432,27.065516105681148 C44.36187210383516,27.20942928621112 44.376597408934884,27.398400623428486 44.45717552716303,27.632416470889325 z" fill="#27AE60" id="svg_4" class=""/></g></g></svg>