<svg width="77" height="77" viewBox="0 0 77 77" fill="none" xmlns="http://www.w3.org/2000/svg">
<path fill-rule="evenodd" clip-rule="evenodd" d="M37.8668 67.3188C54.1327 67.3188 67.3188 54.1327 67.3188 37.8668C67.3188 21.6009 54.1327 8.41485 37.8668 8.41485C21.6009 8.41485 8.41485 21.6009 8.41485 37.8668C8.41485 54.1327 21.6009 67.3188 37.8668 67.3188ZM37.8668 75.7337C58.7801 75.7337 75.7337 58.7801 75.7337 37.8668C75.7337 16.9536 58.7801 0 37.8668 0C16.9536 0 0 16.9536 0 37.8668C0 58.7801 16.9536 75.7337 37.8668 75.7337Z" transform="translate(-11.0001 18.5916) rotate(-23)" fill="#27AE60"/>
<path d="M0.353424 4.54402C0.353424 3.87083 0.496476 3.25655 0.782581 2.70117C1.06869 2.14579 1.46418 1.66614 1.96907 1.26223C2.47397 0.858315 3.07983 0.546966 3.78668 0.328179C4.49353 0.109393 5.2677 0 6.10918 0C6.95067 0 7.72483 0.100978 8.43168 0.302935C9.13853 0.504891 9.7444 0.790996 10.2493 1.16125C10.7542 1.5315 11.1497 1.98591 11.4358 2.52446C11.7219 3.06301 11.8649 3.66887 11.8649 4.34206C11.8649 5.08257 11.7135 5.73051 11.4105 6.28589C11.1076 6.84127 10.6869 7.30409 10.1483 7.67434C10.7878 8.11192 11.3096 8.63364 11.7135 9.23951C12.1174 9.82855 12.3193 10.628 12.3193 11.6377C12.3193 12.3109 12.1763 12.9252 11.8902 13.4806C11.6041 14.036 11.1918 14.5156 10.6532 14.9195C10.1146 15.3234 9.46671 15.6348 8.70937 15.8536C7.95203 16.0724 7.10213 16.1818 6.15967 16.1818C5.21721 16.1818 4.36731 16.0724 3.60997 15.8536C2.85263 15.6348 2.20469 15.3234 1.66614 14.9195C1.14442 14.5156 0.732092 14.036 0.429157 13.4806C0.143053 12.9252 0 12.3109 0 11.6377C0 10.7289 0.193542 9.9716 0.580625 9.36573C0.984537 8.75986 1.45577 8.28863 1.99432 7.95203C1.53992 7.58178 1.15283 7.14421 0.83307 6.63932C0.513306 6.1176 0.353424 5.41916 0.353424 4.54402ZM4.31682 11.2591C4.31682 11.7808 4.48512 12.1931 4.82171 12.4961C5.17513 12.799 5.62112 12.9505 6.15967 12.9505C6.69822 12.9505 7.13579 12.799 7.47239 12.4961C7.82581 12.1763 8.00252 11.764 8.00252 11.2591C8.00252 10.771 7.85105 10.3671 7.54812 10.0473C7.26202 9.71074 6.86652 9.44988 6.36163 9.26475C5.62112 9.43305 5.09098 9.69391 4.77122 10.0473C4.46829 10.3839 4.31682 10.7878 4.31682 11.2591ZM7.6491 4.69549C7.6491 4.24109 7.51446 3.87925 7.24519 3.60997C6.97591 3.3407 6.59724 3.20606 6.10918 3.20606C5.62112 3.20606 5.24245 3.3407 4.97318 3.60997C4.7039 3.87925 4.56926 4.23267 4.56926 4.67024C4.56926 5.10781 4.7039 5.46124 4.97318 5.73051C5.25928 5.99979 5.58746 6.21858 5.95771 6.38687C6.54675 6.25223 6.97591 6.03345 7.24519 5.73051C7.51446 5.42758 7.6491 5.08257 7.6491 4.69549Z" transform="translate(19.2518 38.0018) rotate(-23)" fill="#27AE60"/>
<path d="M18.5691 12.7737C19.6462 12.7737 20.5046 12.4961 21.1441 11.9407C21.8004 11.3853 22.1286 10.6195 22.1286 9.64342C21.9435 9.79489 21.5985 9.9716 21.0936 10.1736C20.6055 10.3755 19.9744 10.4765 19.2003 10.4765C18.4261 10.4765 17.7192 10.3671 17.0797 10.1483C16.457 9.92952 15.9185 9.60976 15.4641 9.18902C15.0097 8.75144 14.6562 8.22131 14.4038 7.59861C14.1513 6.97591 14.0251 6.25223 14.0251 5.42758C14.0251 4.7039 14.1513 4.0223 14.4038 3.38277C14.6562 2.72641 15.0349 2.1542 15.5398 1.66614C16.0447 1.16125 16.6674 0.765751 17.4079 0.479646C18.1652 0.176711 19.0404 0.0252443 20.0333 0.0252443C22.0192 0.0252443 23.576 0.690017 24.7036 2.01956C25.848 3.34911 26.4202 5.24245 26.4202 7.69959C26.4202 9.09645 26.2435 10.325 25.8901 11.3853C25.5366 12.4456 25.0402 13.3291 24.4006 14.036C23.7779 14.7428 23.029 15.273 22.1539 15.6264C21.2787 15.9798 20.311 16.1565 19.2507 16.1565C17.9044 16.1565 16.8525 15.9714 16.0952 15.6011C15.3378 15.2309 14.9592 14.6671 14.9592 13.9097C14.9592 13.5563 15.0349 13.2197 15.1864 12.9C15.3547 12.5634 15.5482 12.3109 15.767 12.1426C16.2214 12.3446 16.6926 12.5045 17.1807 12.6223C17.6856 12.7233 18.1484 12.7737 18.5691 12.7737ZM20.1848 7.24519C20.5046 7.24519 20.8243 7.17787 21.1441 7.04323C21.4807 6.90859 21.7584 6.72347 21.9772 6.48785V6.18491C21.9603 5.22562 21.792 4.52719 21.4723 4.08962C21.1525 3.65205 20.6813 3.43326 20.0586 3.43326C19.5032 3.43326 19.0656 3.60997 18.7459 3.96339C18.4429 4.29999 18.2915 4.7628 18.2915 5.35184C18.2915 5.92405 18.4682 6.38687 18.8216 6.7403C19.175 7.07689 19.6294 7.24519 20.1848 7.24519Z" transform="translate(19.2518 38.0018) rotate(-23)" fill="#27AE60"/>
<path d="M36.3485 5.36867C36.7299 5.42477 37.0665 5.53136 37.3582 5.68844C37.6612 5.8343 37.8239 6.03625 37.8463 6.29431C37.8463 6.47382 37.8014 6.65895 37.7117 6.84969C37.6219 7.04042 37.5041 7.23677 37.3582 7.43873L31.5352 15.8704C31.1761 15.8143 30.8732 15.7133 30.6264 15.5675C30.3908 15.4104 30.2617 15.2028 30.2393 14.9448C30.2393 14.7653 30.2505 14.5914 30.2729 14.4231C30.3066 14.2435 30.3964 14.0416 30.5422 13.8172L36.3485 5.36867ZM33.2013 8.0446C33.2013 8.88608 32.9489 9.54244 32.444 10.0137C31.9391 10.4849 31.2883 10.7205 30.4917 10.7205C29.6839 10.7205 29.0275 10.4849 28.5227 10.0137C28.029 9.54244 27.7822 8.88608 27.7822 8.0446C27.7822 7.21433 28.029 6.56358 28.5227 6.09235C29.0275 5.62112 29.6839 5.3855 30.4917 5.3855C31.2883 5.3855 31.9391 5.62112 32.444 6.09235C32.9489 6.56358 33.2013 7.21433 33.2013 8.0446ZM29.8185 8.0446C29.8185 8.38119 29.8803 8.63364 30.0037 8.80193C30.1383 8.95901 30.301 9.03755 30.4917 9.03755C30.6825 9.03755 30.8395 8.95901 30.963 8.80193C31.0976 8.63364 31.1649 8.38119 31.1649 8.0446C31.1649 7.71922 31.0976 7.478 30.963 7.32092C30.8395 7.16384 30.6825 7.0853 30.4917 7.0853C30.301 7.0853 30.1383 7.16384 30.0037 7.32092C29.8803 7.478 29.8185 7.71922 29.8185 8.0446ZM40.253 13.2113C40.253 14.0528 40.0005 14.7092 39.4956 15.1804C38.9907 15.6516 38.34 15.8872 37.5434 15.8872C36.7355 15.8872 36.0792 15.6516 35.5743 15.1804C35.0806 14.7092 34.8338 14.0528 34.8338 13.2113C34.8338 12.3811 35.0806 11.7303 35.5743 11.2591C36.0792 10.7878 36.7355 10.5522 37.5434 10.5522C38.34 10.5522 38.9907 10.7878 39.4956 11.2591C40.0005 11.7303 40.253 12.3811 40.253 13.2113ZM36.8702 13.2113C36.8702 13.5479 36.9319 13.8004 37.0553 13.9687C37.19 14.1257 37.3526 14.2043 37.5434 14.2043C37.7341 14.2043 37.8912 14.1257 38.0146 13.9687C38.1493 13.8004 38.2166 13.5479 38.2166 13.2113C38.2166 12.8859 38.1493 12.6447 38.0146 12.4876C37.8912 12.3306 37.7341 12.252 37.5434 12.252C37.3526 12.252 37.19 12.3306 37.0553 12.4876C36.9319 12.6447 36.8702 12.8859 36.8702 13.2113Z" transform="translate(19.2518 38.0018) rotate(-23)" fill="#27AE60"/>
</svg>
