<svg width="112" height="114" viewBox="0 0 112 114" fill="none" xmlns="http://www.w3.org/2000/svg">
<path d="M15.3629 1.53324C13.4407 -0.511082 10.3244 -0.511082 8.40225 1.53324L1.44162 8.93625C-0.480539 10.9806 -0.480539 14.2949 1.44162 16.3393C3.36378 18.3831 6.48009 18.3831 8.40225 16.3393L15.3629 8.93625C17.2846 6.89193 17.2846 3.57756 15.3629 1.53324Z" transform="translate(17.9202 59.1127)" fill="#FDFDFD"/>
<path d="M15.3629 1.53324C13.4407 -0.511078 10.3244 -0.511078 8.40225 1.53324L1.44162 8.93625C-0.480538 10.9806 -0.480538 14.2949 1.44162 16.3393C3.36378 18.3836 6.48009 18.3836 8.40225 16.3393L15.3629 8.93625C17.2853 6.89193 17.2853 3.57756 15.3629 1.53324Z" transform="translate(29.5212 71.4509)" fill="#FDFDFD"/>
<path d="M15.3629 1.53324C13.4407 -0.51108 10.3244 -0.51108 8.40225 1.53324L1.44162 8.93625C-0.480541 10.9806 -0.480541 14.2949 1.44162 16.3393C3.36378 18.3836 6.4801 18.3836 8.40225 16.3393L15.3629 8.93625C17.285 6.8917 17.285 3.57756 15.3629 1.53324Z" transform="translate(41.1218 83.7892)" fill="#FDFDFD"/>
<path d="M15.3629 1.53324C13.4407 -0.511077 10.3244 -0.511077 8.40225 1.53324L1.44162 8.93625C-0.48054 10.9806 -0.48054 14.2949 1.44162 16.3393C3.36378 18.3836 6.48009 18.3836 8.40225 16.3393L15.3629 8.93625C17.285 6.89193 17.285 3.57756 15.3629 1.53324Z" transform="translate(52.7229 96.1275)" fill="#FDFDFD"/>
<path d="M64.6968 10.1396C51.9852 -3.37986 31.3756 -3.37986 18.664 10.1396L2.12303 27.4527C-0.707603 30.4632 -0.707603 35.2996 2.12259 38.3101C4.39693 40.729 8.10913 41.4195 10.9398 39.4948L16.7401 34.1152L31.6359 20.3461L66.3238 57.2378C77.3832 43.6374 76.8407 23.0553 64.6968 10.1396Z" transform="translate(37.7695)" fill="#FDFDFD"/>
<path d="M100.606 59.77L69.092 26.2543L58.8149 35.7542L52.6553 41.467L52.2445 41.7464C50.118 43.1921 47.6451 43.9564 45.0925 43.9566C41.4328 43.9568 37.8461 42.375 35.2522 39.6165C29.8793 33.9011 29.8795 24.6027 35.2524 18.8883L49.53 3.94405C36.736 -2.99668 20.6797 -0.777405 9.97517 10.6075C-3.32506 24.753 -3.32506 47.6874 9.97517 61.833L11.3581 63.3038L21.1424 52.8982C25.5067 48.2567 32.6867 47.4301 37.3391 51.7437C40.0067 54.2173 41.3061 57.6678 41.2685 61.1047C44.2547 61.0678 47.2513 62.2447 49.5246 64.6622C51.7976 67.0797 52.9043 70.2671 52.8695 73.443C55.8556 73.406 58.8523 74.583 61.1255 77.0005C63.3986 79.418 64.5052 82.6054 64.4705 85.7813C67.4566 85.7443 70.4533 86.9213 72.7265 89.3388C73.7695 90.4481 74.5454 91.7295 75.1022 93.088C75.9268 92.8625 76.7211 92.4933 77.3669 91.8065C79.2895 89.7618 79.289 86.4474 77.3669 84.4035L76.2068 83.1695L59.9655 65.896C58.6841 64.5331 58.6841 62.3236 59.9655 60.9607C61.2469 59.5976 63.3244 59.5979 64.6059 60.9607L80.8472 78.2343L82.0077 79.4683C83.9294 81.5121 87.0461 81.5121 88.9683 79.4683C90.8905 77.4235 90.89 74.1091 88.9683 72.0653L87.8078 70.831L71.5665 53.5575C70.2851 52.1948 70.2851 49.9851 71.5665 48.6222C72.8482 47.2591 74.9254 47.2593 76.2068 48.6222L92.4482 65.8958L93.6086 67.1295C95.5304 69.1738 98.6471 69.1738 100.569 67.1295C102.479 65.0989 102.489 61.8171 100.606 59.77Z" transform="translate(0 3.38672)" fill="white"/>
</svg>
