<svg width="125" height="95" viewBox="0 0 125 95" fill="none" xmlns="http://www.w3.org/2000/svg">
<path d="M123 32.0324C123.028 26.2747 121.49 20.6184 118.552 15.6728C115.613 10.7272 111.386 6.67972 106.324 3.96644C101.263 1.25317 95.5597 -0.0230677 89.829 0.275225C84.0982 0.573518 78.5571 2.43504 73.8027 5.65923C69.0484 8.88342 65.2608 13.3481 62.8483 18.5722C60.4357 23.7964 59.4894 29.582 60.1115 35.3058C60.7336 41.0296 62.9004 46.4746 66.3784 51.0543C69.8565 55.6339 74.514 59.1746 79.8493 61.2949C76.1396 66.8781 69.6285 71.0113 61.0564 73.9135C57.3144 75.1012 53.3627 75.4731 49.4658 75.0045C45.5689 74.5359 41.8167 73.2376 38.4603 71.1965C33.5443 68.2203 29.3074 64.2396 26.0251 59.5129C22.7427 54.7862 20.4884 49.4195 19.4086 43.7614C18.9556 41.5408 18.6212 39.2974 18.4069 37.0409L33.8783 38.7529L42.0598 23.006L16.8684 20.0653C16.8882 18.8232 16.845 17.5809 16.739 16.3432L43.4905 18.9473L53.9533 3.23642L4.23675 0.182741V0.276514L0.431198 0C-1.12649 17.608 2.02723 43.2565 2.15664 44.4106H2.58321C2.75096 45.3724 2.91631 46.2717 3.12001 47.2768C4.67357 55.2318 7.88008 62.7691 12.5306 69.3977C17.1812 76.0264 23.1714 81.5976 30.1111 85.7484C37.0127 89.7865 44.8475 91.9418 52.8366 92C57.4155 91.9946 61.9635 91.2468 66.3046 89.7855C81.6658 84.5918 92.7038 75.1543 97.6189 62.9636C104.757 61.5374 111.184 57.6778 115.81 52.0393C120.435 46.4007 122.975 39.3305 122.997 32.0276L123 32.0324ZM71.6511 32.0324C71.6577 28.1075 72.8126 24.2709 74.9725 20.9985C77.1323 17.7261 80.2021 15.1618 83.801 13.6238V45.0262H83.6165C83.792 46.8027 83.792 48.5924 83.6165 50.3689C80.0568 48.8174 77.0273 46.2549 74.9012 42.9972C72.7751 39.7395 71.6453 35.9288 71.6511 32.0348V32.0324ZM100.61 49.7726L100.49 14.2201C103.773 15.8704 106.536 18.4023 108.47 21.5341C110.405 24.6659 111.436 28.2748 111.448 31.9594C111.461 35.6439 110.454 39.2597 108.541 42.4046C106.627 45.5494 103.882 48.1 100.61 49.7726Z" transform="translate(-0.226929 5.13834) rotate(-2.87119)" fill="white"/>
</svg>
