<svg width="35" height="35" viewBox="0 0 35 35" fill="none" xmlns="http://www.w3.org/2000/svg">
<path d="M4.8009 0.470733C4.20022 -0.156912 3.22638 -0.156912 2.6257 0.470733L0.450506 2.7436C-0.150168 3.37124 -0.150168 4.38882 0.450506 5.01646C1.05118 5.64396 2.02503 5.64396 2.6257 5.01646L4.8009 2.7436C5.40144 2.11595 5.40144 1.09838 4.8009 0.470733Z" transform="translate(5.6001 18.1487)" fill="#FDFDFD"/>
<path d="M4.8009 0.470734C4.20022 -0.15691 3.22638 -0.15691 2.6257 0.470734L0.450506 2.7436C-0.150168 3.37124 -0.150168 4.38881 0.450506 5.01646C1.05118 5.6441 2.02503 5.6441 2.6257 5.01646L4.8009 2.7436C5.40164 2.11595 5.40164 1.09838 4.8009 0.470734Z" transform="translate(9.22534 21.9368)" fill="#FDFDFD"/>
<path d="M4.8009 0.470733C4.20023 -0.156911 3.22638 -0.156911 2.6257 0.470733L0.450505 2.7436C-0.150169 3.37124 -0.150169 4.38882 0.450505 5.01646C1.05118 5.6441 2.02503 5.6441 2.6257 5.01646L4.8009 2.7436C5.40157 2.11588 5.40157 1.09838 4.8009 0.470733Z" transform="translate(12.8506 25.7249)" fill="#FDFDFD"/>
<path d="M4.8009 0.470734C4.20022 -0.15691 3.22638 -0.15691 2.6257 0.470734L0.450506 2.7436C-0.150168 3.37124 -0.150168 4.38881 0.450506 5.01646C1.05118 5.6441 2.02503 5.6441 2.6257 5.01646L4.8009 2.7436C5.40157 2.11595 5.40157 1.09838 4.8009 0.470734Z" transform="translate(16.4759 29.5129)" fill="#FDFDFD"/>
<path d="M20.2177 3.11304C16.2454 -1.03768 9.80488 -1.03768 5.83251 3.11304L0.663445 8.42849C-0.221126 9.35277 -0.221126 10.8376 0.663308 11.7619C1.37404 12.5046 2.5341 12.7166 3.41867 12.1256L5.23129 10.474L9.88622 6.24662L20.7262 17.5731C24.1822 13.3975 24.0127 7.07841 20.2177 3.11304Z" transform="translate(11.8029)" fill="#FDFDFD"/>
<path d="M31.4393 18.3505L21.5912 8.06056L18.3796 10.9772L16.4548 12.7311L16.3264 12.8169C15.6619 13.2608 14.8891 13.4954 14.0914 13.4955C12.9477 13.4956 11.8269 13.0099 11.0163 12.163C9.33726 10.4083 9.33733 7.55348 11.0164 5.79905L15.4781 1.2109C11.48 -0.920037 6.46241 -0.238678 3.11724 3.25669C-1.03908 7.59963 -1.03908 14.6409 3.11724 18.9839L3.54941 19.4354L6.60699 16.2407C7.97083 14.8157 10.2146 14.5619 11.6685 15.8863C12.5021 16.6457 12.9082 17.7051 12.8964 18.7603C13.8296 18.7489 14.766 19.1103 15.4764 19.8525C16.1867 20.5947 16.5326 21.5733 16.5217 22.5484C17.4549 22.537 18.3913 22.8984 19.1017 23.6406C19.812 24.3828 20.1579 25.3614 20.147 26.3365C21.0802 26.3251 22.0166 26.6865 22.727 27.4287C23.053 27.7693 23.2954 28.1627 23.4694 28.5798C23.7271 28.5105 23.9753 28.3972 24.1771 28.1863C24.7779 27.5585 24.7778 26.541 24.1771 25.9135L23.8146 25.5346L18.7392 20.2313C18.3388 19.8129 18.3388 19.1345 18.7392 18.7161C19.1397 18.2976 19.7889 18.2977 20.1893 18.7161L25.2647 24.0194L25.6274 24.3982C26.2279 25.0257 27.2019 25.0257 27.8026 24.3982C28.4033 23.7705 28.4031 22.7529 27.8026 22.1254L27.4399 21.7465L22.3645 16.4432C21.9641 16.0248 21.9641 15.3464 22.3645 14.9279C22.765 14.5094 23.4142 14.5095 23.8146 14.9279L28.89 20.2312L29.2527 20.61C29.8532 21.2377 30.8272 21.2377 31.4279 20.61C32.0245 19.9866 32.0277 18.979 31.4393 18.3505Z" transform="translate(0 1.03979)" fill="white"/>
</svg>
