<svg width="40" height="55" viewBox="0 0 40 55" fill="none" xmlns="http://www.w3.org/2000/svg">
<path d="M7.2 36.5C12.3395 36.5 15.3763 32.1644 16.8385 28.9657C18.5025 25.3258 19.4 20.6485 19.4 15.75C19.4 10.8515 18.5025 6.17423 16.8385 2.53427C15.3763 -0.66437 12.3395 -5 7.2 -5C2.06052 -5 -0.976306 -0.66437 -2.43854 2.53427C-4.10252 6.17423 -5 10.8515 -5 15.75C-5 20.6485 -4.10252 25.3258 -2.43854 28.9657C-0.976306 32.1644 2.06052 36.5 7.2 36.5Z" transform="translate(12.8 10)" stroke="#909090" stroke-width="10"/>
<rect width="40" height="30" transform="translate(0 25)" fill="#C4C4C4"/>
<rect width="40" height="14" transform="translate(0 34)" fill="#909090"/>
</svg>
