<svg width="248" height="248" viewBox="0 0 248 248" fill="none" xmlns="http://www.w3.org/2000/svg">
<path d="M218.167 122.808C218.167 175.284 175.56 217.825 123 217.825C70.4402 217.825 27.8333 175.284 27.8333 122.808C27.8333 70.3321 70.4402 27.7907 123 27.7907C175.56 27.7907 218.167 70.3321 218.167 122.808ZM123 246.116C191.206 246.116 246.5 190.91 246.5 122.808C246.5 54.7062 191.206 -0.5 123 -0.5C54.7936 -0.5 -0.5 54.7062 -0.5 122.808C-0.5 190.91 54.7936 246.116 123 246.116Z" transform="translate(1 1.38392)" fill="url(#paint0_angular)" stroke="#656565"/>
<mask id="path-2-inside-1" fill="white">
<path d="M1.32579 17.1295C1.32579 14.5918 1.86242 12.2761 2.93568 10.1825C4.00894 8.08892 5.49256 6.28081 7.38655 4.75819C9.28053 3.23557 11.5533 2.06188 14.2049 1.23713C16.8565 0.412377 19.7606 0 22.9172 0C26.0739 0 28.978 0.380656 31.6296 1.14197C34.2811 1.90328 36.5539 2.9818 38.4479 4.37754C40.3419 5.77327 41.8255 7.48622 42.8988 9.51638C43.972 11.5465 44.5087 13.8305 44.5087 16.3682C44.5087 19.1596 43.9405 21.6022 42.8041 23.6958C41.6677 25.7894 40.0894 27.5341 38.0691 28.9298C40.4682 30.5793 42.4253 32.546 43.9405 34.83C45.4557 37.0504 46.2133 40.064 46.2133 43.8705C46.2133 46.4082 45.6766 48.7239 44.6034 50.8175C43.5301 52.9111 41.9834 54.7192 39.9631 56.2418C37.9428 57.7644 35.5122 58.9381 32.6713 59.7629C29.8303 60.5876 26.6421 61 23.1066 61C19.5712 61 16.383 60.5876 13.542 59.7629C10.701 58.9381 8.27041 57.7644 6.25015 56.2418C4.29304 54.7192 2.74628 52.9111 1.60989 50.8175C0.53663 48.7239 0 46.4082 0 43.8705C0 40.4446 0.726028 37.5897 2.17808 35.3058C3.69327 33.0218 5.46099 31.2454 7.48125 29.9766C5.77666 28.5809 4.3246 26.9314 3.12508 25.0281C1.92555 23.0614 1.32579 20.4285 1.32579 17.1295ZM16.1936 42.4431C16.1936 44.4098 16.8249 45.9641 18.0876 47.1061C19.4134 48.2481 21.0864 48.819 23.1066 48.819C25.1269 48.819 26.7683 48.2481 28.031 47.1061C29.3568 45.9007 30.0197 44.3463 30.0197 42.4431C30.0197 40.6032 29.4515 39.0806 28.3151 37.8752C27.2418 36.6063 25.7582 35.623 23.8642 34.9251C21.0864 35.5595 19.0977 36.5429 17.8982 37.8752C16.7618 39.144 16.1936 40.6667 16.1936 42.4431ZM28.6939 17.7005C28.6939 15.9875 28.1888 14.6235 27.1787 13.6084C26.1686 12.5933 24.7481 12.0858 22.9172 12.0858C21.0864 12.0858 19.6659 12.5933 18.6558 13.6084C17.6456 14.6235 17.1406 15.9558 17.1406 17.6053C17.1406 19.2548 17.6456 20.5871 18.6558 21.6022C19.729 22.6173 20.9601 23.442 22.349 24.0764C24.5587 23.5689 26.1686 22.7442 27.1787 21.6022C28.1888 20.4602 28.6939 19.1596 28.6939 17.7005Z"/>
<path d="M65.658 48.1529C69.6985 48.1529 72.9183 47.1061 75.3173 45.0125C77.7795 42.9189 79.0106 40.0322 79.0106 36.3526C78.3161 36.9236 77.0219 37.5897 75.1279 38.351C73.2971 39.1123 70.9296 39.493 68.0255 39.493C65.1214 39.493 62.4698 39.0806 60.0707 38.2559C57.7348 37.4311 55.7146 36.2257 54.01 34.6396C52.3054 32.9901 50.9796 30.9917 50.0326 28.6443C49.0856 26.2969 48.6121 23.5689 48.6121 20.4602C48.6121 17.7322 49.0856 15.1628 50.0326 12.7519C50.9796 10.2777 52.4001 8.12065 54.2941 6.28081C56.1881 4.37754 58.524 2.88664 61.3018 1.80811C64.1428 0.666145 67.4257 0.095163 71.1506 0.095163C78.6002 0.095163 84.44 2.60114 88.6699 7.6131C92.963 12.6251 95.1095 19.7624 95.1095 29.025C95.1095 34.2907 94.4466 38.922 93.1208 42.9189C91.795 46.9158 89.9326 50.2465 87.5335 52.9111C85.1976 55.5757 82.3882 57.5741 79.1053 58.9064C75.8224 60.2387 72.1922 60.9048 68.2149 60.9048C63.1642 60.9048 59.2184 60.207 56.3775 58.8112C53.5365 57.4155 52.116 55.2902 52.116 52.4353C52.116 51.103 52.4001 49.8341 52.9683 48.6287C53.5996 47.3599 54.3256 46.4082 55.1464 45.7738C56.851 46.5351 58.6187 47.1378 60.4495 47.5819C62.3435 47.9626 64.0797 48.1529 65.658 48.1529ZM71.7188 27.312C72.9183 27.312 74.1178 27.0582 75.3173 26.5507C76.58 26.0432 77.6217 25.3453 78.4424 24.4571V23.3151C78.3793 19.6989 77.7479 17.066 76.5484 15.4165C75.3489 13.767 73.5812 12.9423 71.2452 12.9423C69.1619 12.9423 67.5204 13.6084 66.3209 14.9407C65.1845 16.2096 64.6163 17.9542 64.6163 20.1747C64.6163 22.3318 65.2792 24.0764 66.605 25.4087C67.9308 26.6776 69.6354 27.312 71.7188 27.312Z"/>
<path d="M128.353 20.2382C129.784 20.4496 131.047 20.8515 132.141 21.4436C133.278 21.9934 133.888 22.7547 133.972 23.7275C133.972 24.4042 133.804 25.1021 133.467 25.8211C133.13 26.5401 132.688 27.2803 132.141 28.0416L110.297 59.8263C108.95 59.6148 107.814 59.2342 106.888 58.6843C106.004 58.0922 105.52 57.3098 105.436 56.337C105.436 55.6603 105.478 55.0047 105.562 54.3703C105.688 53.6935 106.025 52.9322 106.572 52.0863L128.353 20.2382ZM116.547 30.3255C116.547 33.4977 115.6 35.9719 113.706 37.7483C111.812 39.5247 109.371 40.4129 106.383 40.4129C103.353 40.4129 100.89 39.5247 98.9964 37.7483C97.1445 35.9719 96.2186 33.4977 96.2186 30.3255C96.2186 27.1957 97.1445 24.7426 98.9964 22.9662C100.89 21.1898 103.353 20.3016 106.383 20.3016C109.371 20.3016 111.812 21.1898 113.706 22.9662C115.6 24.7426 116.547 27.1957 116.547 30.3255ZM103.858 30.3255C103.858 31.5944 104.089 32.546 104.552 33.1804C105.057 33.7726 105.667 34.0686 106.383 34.0686C107.098 34.0686 107.688 33.7726 108.151 33.1804C108.656 32.546 108.908 31.5944 108.908 30.3255C108.908 29.099 108.656 28.1896 108.151 27.5975C107.688 27.0054 107.098 26.7093 106.383 26.7093C105.667 26.7093 105.057 27.0054 104.552 27.5975C104.089 28.1896 103.858 29.099 103.858 30.3255ZM143 49.8024C143 52.9745 142.053 55.4488 140.159 57.2252C138.265 59.0016 135.824 59.8898 132.836 59.8898C129.805 59.8898 127.343 59.0016 125.449 57.2252C123.597 55.4488 122.671 52.9745 122.671 49.8024C122.671 46.6726 123.597 44.2194 125.449 42.4431C127.343 40.6667 129.805 39.7785 132.836 39.7785C135.824 39.7785 138.265 40.6667 140.159 42.4431C142.053 44.2194 143 46.6726 143 49.8024ZM130.31 49.8024C130.31 51.0712 130.542 52.0229 131.005 52.6573C131.51 53.2494 132.12 53.5455 132.836 53.5455C133.551 53.5455 134.14 53.2494 134.603 52.6573C135.108 52.0229 135.361 51.0712 135.361 49.8024C135.361 48.5758 135.108 47.6665 134.603 47.0744C134.14 46.4822 133.551 46.1862 132.836 46.1862C132.12 46.1862 131.51 46.4822 131.005 47.0744C130.542 47.6665 130.31 48.5758 130.31 49.8024Z"/>
</mask>
<path d="M1.32579 17.1295C1.32579 14.5918 1.86242 12.2761 2.93568 10.1825C4.00894 8.08892 5.49256 6.28081 7.38655 4.75819C9.28053 3.23557 11.5533 2.06188 14.2049 1.23713C16.8565 0.412377 19.7606 0 22.9172 0C26.0739 0 28.978 0.380656 31.6296 1.14197C34.2811 1.90328 36.5539 2.9818 38.4479 4.37754C40.3419 5.77327 41.8255 7.48622 42.8988 9.51638C43.972 11.5465 44.5087 13.8305 44.5087 16.3682C44.5087 19.1596 43.9405 21.6022 42.8041 23.6958C41.6677 25.7894 40.0894 27.5341 38.0691 28.9298C40.4682 30.5793 42.4253 32.546 43.9405 34.83C45.4557 37.0504 46.2133 40.064 46.2133 43.8705C46.2133 46.4082 45.6766 48.7239 44.6034 50.8175C43.5301 52.9111 41.9834 54.7192 39.9631 56.2418C37.9428 57.7644 35.5122 58.9381 32.6713 59.7629C29.8303 60.5876 26.6421 61 23.1066 61C19.5712 61 16.383 60.5876 13.542 59.7629C10.701 58.9381 8.27041 57.7644 6.25015 56.2418C4.29304 54.7192 2.74628 52.9111 1.60989 50.8175C0.53663 48.7239 0 46.4082 0 43.8705C0 40.4446 0.726028 37.5897 2.17808 35.3058C3.69327 33.0218 5.46099 31.2454 7.48125 29.9766C5.77666 28.5809 4.3246 26.9314 3.12508 25.0281C1.92555 23.0614 1.32579 20.4285 1.32579 17.1295ZM16.1936 42.4431C16.1936 44.4098 16.8249 45.9641 18.0876 47.1061C19.4134 48.2481 21.0864 48.819 23.1066 48.819C25.1269 48.819 26.7683 48.2481 28.031 47.1061C29.3568 45.9007 30.0197 44.3463 30.0197 42.4431C30.0197 40.6032 29.4515 39.0806 28.3151 37.8752C27.2418 36.6063 25.7582 35.623 23.8642 34.9251C21.0864 35.5595 19.0977 36.5429 17.8982 37.8752C16.7618 39.144 16.1936 40.6667 16.1936 42.4431ZM28.6939 17.7005C28.6939 15.9875 28.1888 14.6235 27.1787 13.6084C26.1686 12.5933 24.7481 12.0858 22.9172 12.0858C21.0864 12.0858 19.6659 12.5933 18.6558 13.6084C17.6456 14.6235 17.1406 15.9558 17.1406 17.6053C17.1406 19.2548 17.6456 20.5871 18.6558 21.6022C19.729 22.6173 20.9601 23.442 22.349 24.0764C24.5587 23.5689 26.1686 22.7442 27.1787 21.6022C28.1888 20.4602 28.6939 19.1596 28.6939 17.7005Z" transform="translate(62 93)" fill="url(#paint1_angular)"/>
<path d="M65.658 48.1529C69.6985 48.1529 72.9183 47.1061 75.3173 45.0125C77.7795 42.9189 79.0106 40.0322 79.0106 36.3526C78.3161 36.9236 77.0219 37.5897 75.1279 38.351C73.2971 39.1123 70.9296 39.493 68.0255 39.493C65.1214 39.493 62.4698 39.0806 60.0707 38.2559C57.7348 37.4311 55.7146 36.2257 54.01 34.6396C52.3054 32.9901 50.9796 30.9917 50.0326 28.6443C49.0856 26.2969 48.6121 23.5689 48.6121 20.4602C48.6121 17.7322 49.0856 15.1628 50.0326 12.7519C50.9796 10.2777 52.4001 8.12065 54.2941 6.28081C56.1881 4.37754 58.524 2.88664 61.3018 1.80811C64.1428 0.666145 67.4257 0.095163 71.1506 0.095163C78.6002 0.095163 84.44 2.60114 88.6699 7.6131C92.963 12.6251 95.1095 19.7624 95.1095 29.025C95.1095 34.2907 94.4466 38.922 93.1208 42.9189C91.795 46.9158 89.9326 50.2465 87.5335 52.9111C85.1976 55.5757 82.3882 57.5741 79.1053 58.9064C75.8224 60.2387 72.1922 60.9048 68.2149 60.9048C63.1642 60.9048 59.2184 60.207 56.3775 58.8112C53.5365 57.4155 52.116 55.2902 52.116 52.4353C52.116 51.103 52.4001 49.8341 52.9683 48.6287C53.5996 47.3599 54.3256 46.4082 55.1464 45.7738C56.851 46.5351 58.6187 47.1378 60.4495 47.5819C62.3435 47.9626 64.0797 48.1529 65.658 48.1529ZM71.7188 27.312C72.9183 27.312 74.1178 27.0582 75.3173 26.5507C76.58 26.0432 77.6217 25.3453 78.4424 24.4571V23.3151C78.3793 19.6989 77.7479 17.066 76.5484 15.4165C75.3489 13.767 73.5812 12.9423 71.2452 12.9423C69.1619 12.9423 67.5204 13.6084 66.3209 14.9407C65.1845 16.2096 64.6163 17.9542 64.6163 20.1747C64.6163 22.3318 65.2792 24.0764 66.605 25.4087C67.9308 26.6776 69.6354 27.312 71.7188 27.312Z" transform="translate(62 93)" fill="url(#paint2_angular)"/>
<path d="M128.353 20.2382C129.784 20.4496 131.047 20.8515 132.141 21.4436C133.278 21.9934 133.888 22.7547 133.972 23.7275C133.972 24.4042 133.804 25.1021 133.467 25.8211C133.13 26.5401 132.688 27.2803 132.141 28.0416L110.297 59.8263C108.95 59.6148 107.814 59.2342 106.888 58.6843C106.004 58.0922 105.52 57.3098 105.436 56.337C105.436 55.6603 105.478 55.0047 105.562 54.3703C105.688 53.6935 106.025 52.9322 106.572 52.0863L128.353 20.2382ZM116.547 30.3255C116.547 33.4977 115.6 35.9719 113.706 37.7483C111.812 39.5247 109.371 40.4129 106.383 40.4129C103.353 40.4129 100.89 39.5247 98.9964 37.7483C97.1445 35.9719 96.2186 33.4977 96.2186 30.3255C96.2186 27.1957 97.1445 24.7426 98.9964 22.9662C100.89 21.1898 103.353 20.3016 106.383 20.3016C109.371 20.3016 111.812 21.1898 113.706 22.9662C115.6 24.7426 116.547 27.1957 116.547 30.3255ZM103.858 30.3255C103.858 31.5944 104.089 32.546 104.552 33.1804C105.057 33.7726 105.667 34.0686 106.383 34.0686C107.098 34.0686 107.688 33.7726 108.151 33.1804C108.656 32.546 108.908 31.5944 108.908 30.3255C108.908 29.099 108.656 28.1896 108.151 27.5975C107.688 27.0054 107.098 26.7093 106.383 26.7093C105.667 26.7093 105.057 27.0054 104.552 27.5975C104.089 28.1896 103.858 29.099 103.858 30.3255ZM143 49.8024C143 52.9745 142.053 55.4488 140.159 57.2252C138.265 59.0016 135.824 59.8898 132.836 59.8898C129.805 59.8898 127.343 59.0016 125.449 57.2252C123.597 55.4488 122.671 52.9745 122.671 49.8024C122.671 46.6726 123.597 44.2194 125.449 42.4431C127.343 40.6667 129.805 39.7785 132.836 39.7785C135.824 39.7785 138.265 40.6667 140.159 42.4431C142.053 44.2194 143 46.6726 143 49.8024ZM130.31 49.8024C130.31 51.0712 130.542 52.0229 131.005 52.6573C131.51 53.2494 132.12 53.5455 132.836 53.5455C133.551 53.5455 134.14 53.2494 134.603 52.6573C135.108 52.0229 135.361 51.0712 135.361 49.8024C135.361 48.5758 135.108 47.6665 134.603 47.0744C134.14 46.4822 133.551 46.1862 132.836 46.1862C132.12 46.1862 131.51 46.4822 131.005 47.0744C130.542 47.6665 130.31 48.5758 130.31 49.8024Z" transform="translate(62 93)" fill="url(#paint3_angular)"/>
<path d="M1.32579 17.1295C1.32579 14.5918 1.86242 12.2761 2.93568 10.1825C4.00894 8.08892 5.49256 6.28081 7.38655 4.75819C9.28053 3.23557 11.5533 2.06188 14.2049 1.23713C16.8565 0.412377 19.7606 0 22.9172 0C26.0739 0 28.978 0.380656 31.6296 1.14197C34.2811 1.90328 36.5539 2.9818 38.4479 4.37754C40.3419 5.77327 41.8255 7.48622 42.8988 9.51638C43.972 11.5465 44.5087 13.8305 44.5087 16.3682C44.5087 19.1596 43.9405 21.6022 42.8041 23.6958C41.6677 25.7894 40.0894 27.5341 38.0691 28.9298C40.4682 30.5793 42.4253 32.546 43.9405 34.83C45.4557 37.0504 46.2133 40.064 46.2133 43.8705C46.2133 46.4082 45.6766 48.7239 44.6034 50.8175C43.5301 52.9111 41.9834 54.7192 39.9631 56.2418C37.9428 57.7644 35.5122 58.9381 32.6713 59.7629C29.8303 60.5876 26.6421 61 23.1066 61C19.5712 61 16.383 60.5876 13.542 59.7629C10.701 58.9381 8.27041 57.7644 6.25015 56.2418C4.29304 54.7192 2.74628 52.9111 1.60989 50.8175C0.53663 48.7239 0 46.4082 0 43.8705C0 40.4446 0.726028 37.5897 2.17808 35.3058C3.69327 33.0218 5.46099 31.2454 7.48125 29.9766C5.77666 28.5809 4.3246 26.9314 3.12508 25.0281C1.92555 23.0614 1.32579 20.4285 1.32579 17.1295ZM16.1936 42.4431C16.1936 44.4098 16.8249 45.9641 18.0876 47.1061C19.4134 48.2481 21.0864 48.819 23.1066 48.819C25.1269 48.819 26.7683 48.2481 28.031 47.1061C29.3568 45.9007 30.0197 44.3463 30.0197 42.4431C30.0197 40.6032 29.4515 39.0806 28.3151 37.8752C27.2418 36.6063 25.7582 35.623 23.8642 34.9251C21.0864 35.5595 19.0977 36.5429 17.8982 37.8752C16.7618 39.144 16.1936 40.6667 16.1936 42.4431ZM28.6939 17.7005C28.6939 15.9875 28.1888 14.6235 27.1787 13.6084C26.1686 12.5933 24.7481 12.0858 22.9172 12.0858C21.0864 12.0858 19.6659 12.5933 18.6558 13.6084C17.6456 14.6235 17.1406 15.9558 17.1406 17.6053C17.1406 19.2548 17.6456 20.5871 18.6558 21.6022C19.729 22.6173 20.9601 23.442 22.349 24.0764C24.5587 23.5689 26.1686 22.7442 27.1787 21.6022C28.1888 20.4602 28.6939 19.1596 28.6939 17.7005Z" transform="translate(62 93)" stroke="#656565" stroke-width="2" mask="url(#path-2-inside-1)"/>
<path d="M65.658 48.1529C69.6985 48.1529 72.9183 47.1061 75.3173 45.0125C77.7795 42.9189 79.0106 40.0322 79.0106 36.3526C78.3161 36.9236 77.0219 37.5897 75.1279 38.351C73.2971 39.1123 70.9296 39.493 68.0255 39.493C65.1214 39.493 62.4698 39.0806 60.0707 38.2559C57.7348 37.4311 55.7146 36.2257 54.01 34.6396C52.3054 32.9901 50.9796 30.9917 50.0326 28.6443C49.0856 26.2969 48.6121 23.5689 48.6121 20.4602C48.6121 17.7322 49.0856 15.1628 50.0326 12.7519C50.9796 10.2777 52.4001 8.12065 54.2941 6.28081C56.1881 4.37754 58.524 2.88664 61.3018 1.80811C64.1428 0.666145 67.4257 0.095163 71.1506 0.095163C78.6002 0.095163 84.44 2.60114 88.6699 7.6131C92.963 12.6251 95.1095 19.7624 95.1095 29.025C95.1095 34.2907 94.4466 38.922 93.1208 42.9189C91.795 46.9158 89.9326 50.2465 87.5335 52.9111C85.1976 55.5757 82.3882 57.5741 79.1053 58.9064C75.8224 60.2387 72.1922 60.9048 68.2149 60.9048C63.1642 60.9048 59.2184 60.207 56.3775 58.8112C53.5365 57.4155 52.116 55.2902 52.116 52.4353C52.116 51.103 52.4001 49.8341 52.9683 48.6287C53.5996 47.3599 54.3256 46.4082 55.1464 45.7738C56.851 46.5351 58.6187 47.1378 60.4495 47.5819C62.3435 47.9626 64.0797 48.1529 65.658 48.1529ZM71.7188 27.312C72.9183 27.312 74.1178 27.0582 75.3173 26.5507C76.58 26.0432 77.6217 25.3453 78.4424 24.4571V23.3151C78.3793 19.6989 77.7479 17.066 76.5484 15.4165C75.3489 13.767 73.5812 12.9423 71.2452 12.9423C69.1619 12.9423 67.5204 13.6084 66.3209 14.9407C65.1845 16.2096 64.6163 17.9542 64.6163 20.1747C64.6163 22.3318 65.2792 24.0764 66.605 25.4087C67.9308 26.6776 69.6354 27.312 71.7188 27.312Z" transform="translate(62 93)" stroke="#656565" stroke-width="2" mask="url(#path-2-inside-1)"/>
<path d="M128.353 20.2382C129.784 20.4496 131.047 20.8515 132.141 21.4436C133.278 21.9934 133.888 22.7547 133.972 23.7275C133.972 24.4042 133.804 25.1021 133.467 25.8211C133.13 26.5401 132.688 27.2803 132.141 28.0416L110.297 59.8263C108.95 59.6148 107.814 59.2342 106.888 58.6843C106.004 58.0922 105.52 57.3098 105.436 56.337C105.436 55.6603 105.478 55.0047 105.562 54.3703C105.688 53.6935 106.025 52.9322 106.572 52.0863L128.353 20.2382ZM116.547 30.3255C116.547 33.4977 115.6 35.9719 113.706 37.7483C111.812 39.5247 109.371 40.4129 106.383 40.4129C103.353 40.4129 100.89 39.5247 98.9964 37.7483C97.1445 35.9719 96.2186 33.4977 96.2186 30.3255C96.2186 27.1957 97.1445 24.7426 98.9964 22.9662C100.89 21.1898 103.353 20.3016 106.383 20.3016C109.371 20.3016 111.812 21.1898 113.706 22.9662C115.6 24.7426 116.547 27.1957 116.547 30.3255ZM103.858 30.3255C103.858 31.5944 104.089 32.546 104.552 33.1804C105.057 33.7726 105.667 34.0686 106.383 34.0686C107.098 34.0686 107.688 33.7726 108.151 33.1804C108.656 32.546 108.908 31.5944 108.908 30.3255C108.908 29.099 108.656 28.1896 108.151 27.5975C107.688 27.0054 107.098 26.7093 106.383 26.7093C105.667 26.7093 105.057 27.0054 104.552 27.5975C104.089 28.1896 103.858 29.099 103.858 30.3255ZM143 49.8024C143 52.9745 142.053 55.4488 140.159 57.2252C138.265 59.0016 135.824 59.8898 132.836 59.8898C129.805 59.8898 127.343 59.0016 125.449 57.2252C123.597 55.4488 122.671 52.9745 122.671 49.8024C122.671 46.6726 123.597 44.2194 125.449 42.4431C127.343 40.6667 129.805 39.7785 132.836 39.7785C135.824 39.7785 138.265 40.6667 140.159 42.4431C142.053 44.2194 143 46.6726 143 49.8024ZM130.31 49.8024C130.31 51.0712 130.542 52.0229 131.005 52.6573C131.51 53.2494 132.12 53.5455 132.836 53.5455C133.551 53.5455 134.14 53.2494 134.603 52.6573C135.108 52.0229 135.361 51.0712 135.361 49.8024C135.361 48.5758 135.108 47.6665 134.603 47.0744C134.14 46.4822 133.551 46.1862 132.836 46.1862C132.12 46.1862 131.51 46.4822 131.005 47.0744C130.542 47.6665 130.31 48.5758 130.31 49.8024Z" transform="translate(62 93)" stroke="#656565" stroke-width="2" mask="url(#path-2-inside-1)"/>
<defs>
<radialGradient id="paint0_angular" cx="0.5" cy="0.5" r="0.5" gradientUnits="userSpaceOnUse" gradientTransform="matrix(-172 171.616 -171.884 -172.269 294.942 123.134)">
<stop offset="0.519337" stop-color="#00FF6C"/>
<stop offset="0.939034" stop-color="#027532"/>
</radialGradient>
<radialGradient id="paint1_angular" cx="0.5" cy="0.5" r="0.5" gradientUnits="userSpaceOnUse" gradientTransform="matrix(-0.447984 106.025 -199.076 -0.852076 171.262 -22.0866)">
<stop offset="0.0847292" stop-color="#269D58"/>
<stop offset="0.593556" stop-color="#00FF6C" stop-opacity="0.95"/>
</radialGradient>
<radialGradient id="paint2_angular" cx="0.5" cy="0.5" r="0.5" gradientUnits="userSpaceOnUse" gradientTransform="matrix(-0.447984 106.025 -199.076 -0.852076 171.262 -22.0866)">
<stop offset="0.0847292" stop-color="#269D58"/>
<stop offset="0.593556" stop-color="#00FF6C" stop-opacity="0.95"/>
</radialGradient>
<radialGradient id="paint3_angular" cx="0.5" cy="0.5" r="0.5" gradientUnits="userSpaceOnUse" gradientTransform="matrix(-0.447984 106.025 -199.076 -0.852076 171.262 -22.0866)">
<stop offset="0.0847292" stop-color="#269D58"/>
<stop offset="0.593556" stop-color="#00FF6C" stop-opacity="0.95"/>
</radialGradient>
</defs>
</svg>
