<svg width="26" height="8" viewBox="0 0 26 8" fill="none" xmlns="http://www.w3.org/2000/svg">
<path d="M3.78206 8C5.87083 8 7.56411 6.20914 7.56411 4C7.56411 1.79086 5.87083 0 3.78206 0C1.69328 0 0 1.79086 0 4C0 6.20914 1.69328 8 3.78206 8Z" transform="translate(0 8) scale(1 -1)" fill="white"/>
<path d="M3.78206 8C5.87083 8 7.56411 6.20914 7.56411 4C7.56411 1.79086 5.87083 0 3.78206 0C1.69328 0 0 1.79086 0 4C0 6.20914 1.69328 8 3.78206 8Z" transform="translate(9.21797 8) scale(1 -1)" fill="white"/>
<path d="M3.78206 8C5.87083 8 7.56411 6.20914 7.56411 4C7.56411 1.79086 5.87083 0 3.78206 0C1.69328 0 0 1.79086 0 4C0 6.20914 1.69328 8 3.78206 8Z" transform="translate(18.4359 8) scale(1 -1)" fill="white"/>
</svg>
