<svg width="26" height="26" viewBox="0 0 26 26" fill="none" xmlns="http://www.w3.org/2000/svg">
<path d="M25.1212 5.1211L17.2433 12.9998L25.1212 20.8782C26.2929 22.0504 26.2929 23.9493 25.1212 25.1215C24.5357 25.707 23.7681 26 23.0008 26C22.2323 26 21.4646 25.7075 20.8796 25.1215L13 17.2423L5.12107 25.1215C4.53566 25.707 3.76798 25.9999 3.00007 25.9999C2.23239 25.9999 1.46522 25.7074 0.879291 25.1215C-0.2925 23.9497 -0.2925 22.0508 0.879291 20.8781L8.75691 12.9997L0.878843 5.1211C-0.292948 3.94931 -0.292948 2.04998 0.878843 0.878177C2.05041 -0.292726 3.94861 -0.292726 5.12062 0.878177L13 8.7569L20.8787 0.878177C22.0509 -0.292726 23.9494 -0.292726 25.1207 0.878177C26.2929 2.04998 26.2929 3.94931 25.1212 5.1211Z" fill="white"/>
</svg>
